<svg xmlns="http://www.w3.org/2000/svg" xmlns:xlink="http://www.w3.org/1999/xlink" width="20" height="21" viewBox="0 0 20 21">
    <defs>
        <path id="62fmsvekga" d="M0 0.142L19.995 0.142 19.995 18.889 0 18.889z"/>
    </defs>
    <g fill="none" fill-rule="evenodd">
        <g>
            <g>
                <path fill="#EFD82B" d="M9.626 18.349L19.256 18.349 19.256 6.868 9.626 6.868z" transform="translate(-32 -330) translate(32 330)"/>
                <g>
                    <g transform="translate(-32 -330) translate(32 330) translate(0 .229)">
                        <mask id="j0718sb5gb" fill="#fff">
                            <use xlink:href="#62fmsvekga"/>
                        </mask>
                        <path fill="#094ACC" d="M5.51 10.765c-.182-.225-.347-.415-.497-.616-.15-.203-.285-.417-.426-.624-.355.085-.562.36-.521.69.038.319.304.545.65.55.253.002.506 0 .794 0m8.973-.008c.325 0 .628.022.927-.006.307-.028.526-.323.524-.629-.001-.255-.233-.593-.531-.59-.143.209-.279.422-.43.624-.15.2-.315.387-.49.601m-4.497.008v-.001c.755 0 1.51.002 2.264-.004.092 0 .196-.022.274-.068 1.739-.996 2.723-3.037 2.423-5.014-.424-2.796-3.004-4.676-5.784-4.213-2.047.341-3.685 1.941-4.077 3.98-.394 2.06.548 4.163 2.348 5.228.094.056.217.087.327.088.742.008 1.484.004 2.225.004m-6.231-3.75h-.177l-1.6.002c-.492 0-.727.237-.727.732l-.001 9.156c0 .493.237.732.728.732H18.044c.453 0 .7-.247.7-.7V7.703c0-.437-.254-.686-.694-.687h-1.808c-.1.47-.191.912-.285 1.36.35.14.652.351.87.664.425.614.488 1.271.154 1.938-.334.667-.901 1.022-1.647 1.031-1.314.017-2.628.006-3.943.006-2.238 0-4.477.004-6.715-.003-.886-.003-1.652-.635-1.823-1.478-.178-.882.254-1.735 1.068-2.108.045-.02.088-.045.113-.058l-.28-1.352M0 17.286V7.367c.012-.028.03-.056.036-.086.2-.913.933-1.509 1.871-1.514.56-.004 1.12-.001 1.68-.002h.186C4.136 2.57 6.688.308 9.665.151c1.452-.076 2.785.305 3.966 1.16 1.515 1.097 2.358 2.596 2.59 4.455h1.787c1.19.001 1.986.793 1.986 1.98.002 3.052.001 6.104 0 9.156 0 .117 0 .236-.017.35-.152.989-.911 1.636-1.924 1.636H7.764c-1.952 0-3.904.002-5.857-.001-.847-.002-1.555-.51-1.813-1.288-.034-.103-.063-.208-.094-.313" mask="url(#j0718sb5gb)"/>
                    </g>
                    <path fill="#FFF" d="M9.36 3.29l-.122.033c-.878.244-1.466 1.03-1.416 1.89.055.935.707 1.655 1.638 1.783.256.035.52.017.78.02.412.003.696.26.694.629-.002.367-.286.62-.702.62h-1.66c-.472 0-.758.233-.761.62-.003.387.286.63.752.63h.794c.093.418.316.628.648.624.334-.004.55-.224.636-.65.046-.012.095-.027.144-.041.851-.241 1.43-1.02 1.39-1.874-.043-.902-.675-1.627-1.576-1.775-.273-.045-.557-.028-.836-.032-.415-.006-.7-.255-.702-.622-.002-.37.28-.627.694-.628h1.737c.411 0 .696-.262.693-.63-.003-.36-.286-.618-.684-.62h-.854c-.126-.444-.348-.644-.686-.625-.325.018-.54.245-.601.649zm.626 7.475c-.741 0-1.483.003-2.224-.004-.11-.001-.234-.032-.328-.088-1.8-1.065-2.742-3.169-2.348-5.228.392-2.039 2.03-3.64 4.078-3.98 2.78-.463 5.36 1.417 5.783 4.213.3 1.977-.685 4.019-2.422 5.014-.08.045-.183.068-.275.069-.754.005-1.51.003-2.264.003v.001zM14.483 10.757c.175-.213.34-.402.49-.601.15-.202.287-.415.43-.624.298-.003.53.335.53.59.003.306-.216.6-.523.629-.3.028-.602.006-.927.006M5.51 10.765c-.288 0-.54.002-.794 0-.346-.005-.612-.231-.65-.55-.041-.33.166-.605.521-.69.14.207.276.421.426.624.15.201.315.391.497.616" transform="translate(-32 -330) translate(32 330) translate(0 .229)"/>
                    <path fill="#094ACC" d="M14.376 16.388c-.34.002-.624-.274-.629-.614-.005-.35.28-.637.629-.635.341.002.619.282.62.624 0 .34-.28.622-.62.625M17.496 15.76c.004.337-.277.625-.615.629-.34.003-.627-.273-.634-.611-.008-.35.275-.639.624-.639.34 0 .62.28.625.62M9.36 3.29c.062-.403.276-.63.6-.648.339-.019.561.18.687.625h.854c.398.002.681.26.684.62.003.368-.282.63-.693.63H9.755c-.414 0-.696.257-.694.628.002.367.287.616.702.622.279.004.563-.013.836.032.901.148 1.533.873 1.576 1.775.04.853-.539 1.633-1.39 1.874l-.144.042c-.085.425-.302.645-.636.65-.332.003-.555-.207-.648-.625h-.794c-.466 0-.755-.243-.752-.63.003-.387.289-.62.761-.62h1.66c.416 0 .7-.253.702-.62.002-.37-.282-.626-.694-.63-.26-.002-.524.016-.78-.02-.931-.127-1.583-.847-1.638-1.781-.05-.861.538-1.647 1.416-1.89l.122-.033" transform="translate(-32 -330) translate(32 330) translate(0 .229)"/>
                </g>
            </g>
        </g>
    </g>
</svg>
