<svg xmlns="http://www.w3.org/2000/svg" xmlns:xlink="http://www.w3.org/1999/xlink" width="19" height="27" viewBox="0 0 19 27">
    <defs>
        <path id="lrz573ddia" d="M0 0.29L18.085 0.29 18.085 20 0 20z"/>
        <path id="5kzm5fuzzc" d="M0.081 0.208L1.081 0.208 1.081 4.186 0.081 4.186z"/>
    </defs>
    <g fill="none" fill-rule="evenodd">
        <g>
            <g>
                <path fill="#EFD82B" d="M6.832 21.015L7.145 26.261 11.217 24.382 11.217 21.171 14.74 15.691 3.152 15.456z" transform="translate(-33 -350) translate(33 350)"/>
                <g>
                    <g transform="translate(-33 -350) translate(33 350) translate(0 .792) translate(0 6)">
                        <mask id="gog95alotb" fill="#fff">
                            <use xlink:href="#lrz573ddia"/>
                        </mask>
                        <path fill="#1864EA" d="M10.803 13.839c-.052.077-.079.168-.079.261v3.256L7.361 18.82v-4.253h1.687c.258 0 .467-.209.467-.467s-.209-.468-.467-.468H7.142l-4.7-6.989h9.434c.258 0 .467-.21.467-.468s-.209-.467-.467-.467H1.814l-.88-1.307H17.15l-6.347 9.438zM4.847 1.224c.618 0 1.121.503 1.121 1.121 0 .619-.503 1.121-1.12 1.121-.619 0-1.122-.502-1.122-1.121 0-.618.503-1.121 1.121-1.121zm7.03.981c.79 0 1.458.535 1.663 1.261h-3.327c.204-.726.872-1.261 1.663-1.261zm6.098 1.756c-.163-.305-.479-.495-.825-.495h-2.654c-.22-1.246-1.31-2.195-2.62-2.195-1.308 0-2.398.949-2.62 2.195H6.568c.211-.322.334-.708.334-1.121C6.902 1.212 5.98.29 4.847.29s-2.055.922-2.055 2.055c0 .413.123.799.333 1.121H.935c-.347 0-.663.19-.825.495-.163.306-.144.674.048.961l6.27 9.32v5.291c0 .158.078.304.21.391.077.05.166.076.256.076.063 0 .127-.013.186-.039l4.297-1.871c.17-.074.28-.242.28-.428v-3.42l6.268-9.32c.193-.287.212-.655.05-.961z" mask="url(#gog95alotb)"/>
                    </g>
                    <path fill="#1864EA" d="M10.636 5.263c-.618 0-1.12-.503-1.12-1.121s.502-1.121 1.12-1.121c.618 0 1.121.503 1.121 1.12 0 .619-.503 1.122-1.12 1.122m0-3.176c-1.134 0-2.056.922-2.056 2.055s.922 2.055 2.055 2.055 2.055-.922 2.055-2.055-.922-2.055-2.055-2.055M15.628 4.344c-.258 0-.467.21-.467.467v2.655c0 .257.209.466.467.466s.468-.209.468-.466V4.811c0-.258-.21-.467-.468-.467M15.958 2.947c-.087-.087-.207-.137-.33-.137-.122 0-.243.05-.33.137-.087.087-.137.208-.137.331 0 .122.05.243.137.33.087.087.208.136.33.136.123 0 .243-.049.33-.136.087-.087.138-.208.138-.33 0-.123-.051-.244-.138-.33" transform="translate(-33 -350) translate(33 350) translate(0 .792)"/>
                    <g transform="translate(-33 -350) translate(33 350) translate(0 .792) translate(2)">
                        <mask id="gsmh85mgvd" fill="#fff">
                            <use xlink:href="#5kzm5fuzzc"/>
                        </mask>
                        <path fill="#1864EA" d="M.58.208C.324.208.115.417.115.675v3.044c0 .258.209.467.467.467s.467-.21.467-.467V.675C1.048.417.838.208.58.208" mask="url(#gsmh85mgvd)"/>
                    </g>
                    <path fill="#1864EA" d="M2.91 5.14c-.086-.087-.206-.137-.33-.137-.122 0-.242.05-.33.137-.086.087-.136.207-.136.33 0 .123.05.243.137.33.087.087.207.137.33.137.123 0 .243-.05.33-.137.087-.087.137-.207.137-.33 0-.123-.05-.243-.137-.33M14.284 11.845c-.087-.087-.207-.137-.33-.137-.124 0-.244.05-.33.137-.088.087-.138.207-.138.33 0 .123.05.243.138.33.087.087.206.138.33.138.123 0 .242-.051.33-.138.087-.087.137-.207.137-.33 0-.123-.05-.243-.137-.33" transform="translate(-33 -350) translate(33 350) translate(0 .792)"/>
                </g>
            </g>
        </g>
    </g>
</svg>
