<svg xmlns="http://www.w3.org/2000/svg" width="17" height="16" viewBox="0 0 17 16">
    <g fill="none" fill-rule="evenodd">
        <g fill="#2B2B2B">
            <path d="M340.6 64.222h-2.672v-3.47c0-1.41-1.09-2.557-2.428-2.557-1.339 0-2.428 1.147-2.428 2.556v3.471H330.4V55.71l5.1-3.931 5.1 3.931v8.513zm-4.648-14.066c-.272-.209-.635-.207-.904 0l-7.735 5.95c-.341.263-.415.767-.165 1.125.15.214.383.328.619.328.157 0 .314-.05.45-.154l.582-.449v8.24c0 .444.343.804.765.804h4.24c.397 0 .732-.326.765-.805V60.88c0-.36.31-.685.931-.978.62.293.93.619.93.978l.003 4.377c.03.417.366.743.763.743h4.239c.423 0 .766-.36.766-.805v-8.238l.58.448c.33.251.83.168 1.07-.174.121-.174.17-.387.14-.6-.032-.211-.14-.398-.304-.525l-7.735-5.95z" transform="translate(-327 -50)"/>
        </g>
    </g>
</svg>
