<svg xmlns="http://www.w3.org/2000/svg" width="14" height="14" viewBox="0 0 14 14">
    <g fill="none" fill-rule="evenodd" opacity=".725">
        <g fill="#BD9A47" fill-rule="nonzero">
            <g>
                <path d="M13.88.12c-.16-.16-.42-.16-.58 0l-1.195 1.195c-.073-.035-.15-.063-.232-.084L8.161.314c-.417-.104-.865.02-1.169.324L.36 7.259c-.48.48-.48 1.26 0 1.74L5 13.64c.48.48 1.26.48 1.74 0l6.622-6.632c.304-.304.428-.752.324-1.169l-.917-3.712c-.02-.081-.049-.159-.084-.232L13.88.7c.16-.16.16-.42 0-.58zm-.99 5.918c.035.14-.007.288-.108.39L6.161 13.06c-.16.16-.42.16-.58 0L.94 8.42c-.16-.16-.16-.42 0-.58l6.632-6.622c.078-.078.184-.12.291-.12.033 0 .066.004.099.012l3.487.86-.988.989c-.457-.218-1.022-.138-1.4.24-.48.48-.48 1.26 0 1.74.24.24.555.36.87.36.315 0 .63-.12.87-.36.378-.378.458-.943.24-1.4l.988-.988.86 3.487zM10.22 4.36c-.16.16-.42.16-.58 0-.16-.16-.16-.42 0-.58.08-.08.185-.12.29-.12.105 0 .21.04.29.12.16.16.16.42 0 .58z" transform="translate(-25 -1172) translate(25 1172)"/>
                <path d="M6.707 5.293c-.39-.39-1.024-.39-1.414 0-.39.39-.39 1.024 0 1.414.39.39 1.024.39 1.414 0 .39-.39.39-1.024 0-1.414zm-.471.943c-.13.13-.342.13-.472 0-.13-.13-.13-.342 0-.472.13-.13.342-.13.472 0 .13.13.13.342 0 .472zM6.707 9.293c-.39-.39-1.023-.39-1.414 0-.39.39-.39 1.024 0 1.414.39.39 1.023.39 1.414 0 .39-.39.39-1.024 0-1.414zm-.471.943c-.13.13-.341.13-.472 0-.13-.13-.13-.342 0-.472.13-.13.341-.13.472 0 .13.13.13.342 0 .472zM8.997 7.26c-.024-.16-.226-.276-.45-.258l-5.185.414c-.223.018-.384.163-.36.323.024.15.2.261.405.261.015 0 .03 0 .045-.002l5.186-.414c.223-.018.384-.163.36-.323z" transform="translate(-25 -1172) translate(25 1172)"/>
            </g>
        </g>
    </g>
</svg>
