<svg xmlns="http://www.w3.org/2000/svg" width="76" height="76" viewBox="0 0 76 76">
    <g fill="none" fill-rule="evenodd">
        <g fill-rule="nonzero">
            <g transform="translate(-164 -94) translate(164 94)">
                <path fill="#034BD9" d="M74.86 74.86c-1.52 1.52-3.983 1.52-5.503 0L47 52.503 52.503 47 74.86 69.357c1.52 1.52 1.52 3.984 0 5.503z"/>
                <circle cx="33.5" cy="33.5" r="33.5" fill="#1772FF"/>
                <path fill="#034BD9" d="M56.947 9.81C49.308 2.354 38.965-.85 29 .192c7.521.786 14.827 3.991 20.592 9.618 13.404 13.084 13.404 34.296 0 47.38-5.765 5.627-13.07 8.832-20.592 9.618 9.965 1.042 20.308-2.162 27.947-9.618 13.404-13.084 13.404-34.296 0-47.38z"/>
                <circle cx="33.5" cy="33.5" r="26.5" fill="#E2EDFF"/>
                <path fill="#DBDBDB" d="M52.277 14.752C46.212 8.663 37.907 6.162 30 7.246c5.518.756 10.841 3.257 15.074 7.506 10.298 10.337 10.298 27.158 0 37.496-4.233 4.25-9.556 6.75-15.074 7.506 7.907 1.084 16.212-1.417 22.277-7.506 10.297-10.338 10.297-27.158 0-37.496z"/>
            </g>
        </g>
    </g>
</svg>
