<svg xmlns="http://www.w3.org/2000/svg" xmlns:xlink="http://www.w3.org/1999/xlink" width="23" height="24" viewBox="0 0 23 24">
    <defs>
        <path id="1fy83pqs2a" d="M0 0.778L22.194 0.778 22.194 23 0 23z"/>
    </defs>
    <g fill="none" fill-rule="evenodd">
        <g>
            <g>
                <path fill="#EFD82B" d="M17.933 16.905l-2.608 2.074 3.15 3.243s1.733.992 2.721-.195c.987-1.187.173-3.158.173-3.158l-3.436-1.964zM11.846 10c0-1.546-1.254-2.8-2.801-2.8-1.547 0-2.801 1.254-2.801 2.8 0 1.547 1.254 2.801 2.8 2.801 1.548 0 2.802-1.254 2.802-2.8" transform="translate(-30 -732) translate(30 732)"/>
                <g transform="translate(-30 -732) translate(30 732) translate(0 .222)">
                    <mask id="n9jnu2u5hb" fill="#fff">
                        <use xlink:href="#1fy83pqs2a"/>
                    </mask>
                    <path fill="#1864EA" d="M20.756 21.56c-.618.619-1.623.57-2.173-.057l-3.848-4.724 1.299-1.3 4.665 3.908c.67.62.635 1.597.057 2.174m-6.133-4.748c.259-.207.508-.431.745-.667m-12.025-.721C.219 12.3.219 7.245 3.343 4.12c3.123-3.124 8.18-3.124 11.304 0 3.143 3.143 3.137 8.196.014 11.319-3.125 3.125-8.182 3.12-11.318-.015m18.026 3.222c-.646-.591-3.826-3.217-4.754-4.063 2.217-3.518 1.736-8.173-1.261-11.17C11.839-.1 6.15-.101 2.636 3.414c-3.514 3.515-3.515 9.203 0 12.717 2.996 2.996 7.644 3.477 11.16 1.269.008.009 4.13 4.864 4.137 4.87.975.974 2.554.975 3.53-.002 1.037-1.037.94-2.702-.094-3.621" mask="url(#n9jnu2u5hb)"/>
                </g>
                <path fill="#1864EA" d="M14.413 5.568c-.176-.213-.49-.244-.703-.068-.214.175-.244.49-.068.703 1.969 2.393 1.8 5.85-.394 8.046-2.34 2.339-6.14 2.339-8.478-.001-2.338-2.338-2.34-6.14 0-8.477 1.513-1.513 3.74-2.105 5.813-1.545.267.07.54-.086.612-.352.072-.266-.085-.541-.351-.613-2.417-.653-5.016.038-6.781 1.803-2.73 2.729-2.73 7.16 0 9.89 2.73 2.73 7.162 2.73 9.89 0 2.563-2.56 2.724-6.636.46-9.386" transform="translate(-30 -732) translate(30 732)"/>
                <path fill="#1864EA" d="M15.499 10.17h-3.872c-.17 0-.318.106-.372.267l-.661 1.985-.661-1.985c-.054-.16-.204-.268-.371-.268h-.728l-.96-3.835c-.042-.175-.198-.296-.38-.296-.18 0-.335.122-.38.296l-.957 3.835H2.902c-.216 0-.39.176-.39.392 0 .215.174.391.39.391h3.56c.18 0 .337-.122.38-.297l.653-2.612.653 2.612c.044.175.2.297.38.297h.75l.944 2.831c.053.16.203.268.372.268.169 0 .318-.108.372-.268l.943-2.83h3.59c.216 0 .392-.177.392-.392 0-.216-.176-.392-.392-.392" transform="translate(-30 -732) translate(30 732)"/>
            </g>
        </g>
    </g>
</svg>
