<svg xmlns="http://www.w3.org/2000/svg" xmlns:xlink="http://www.w3.org/1999/xlink" width="23" height="27" viewBox="0 0 23 27">
    <defs>
        <path id="12tk1b42ea" d="M0 0.1L22.298 0.1 22.298 8.473 0 8.473z"/>
        <path id="uz2rovfnsc" d="M1.119 0.113L2.329 0.113 2.329 4.886 1.119 4.886z"/>
    </defs>
    <g fill="none" fill-rule="evenodd">
        <g>
            <g>
                <path fill="#EFD82B" d="M13.565 11.73c0-1.21-.98-2.19-2.19-2.19s-2.19.98-2.19 2.19c0 1.209.98 2.19 2.19 2.19s2.19-.981 2.19-2.19M1.553 24.528H.608c-.127 0-.23-.101-.23-.227v-6.507c0-.127.103-.23.23-.23h.945c.126 0 .229.103.229.23v6.507c0 .126-.103.227-.229.227" transform="translate(-34 -1482) translate(34 1482)"/>
                <path fill="#1864EA" d="M11.443 13.928c-.047-.011-.096-.012-.143-.005-.475-.056-.834-.458-.835-.936 0-.23-.185-.415-.414-.415-.23 0-.415.185-.415.415.001.8.535 1.499 1.305 1.71v.416c0 .229.186.414.416.414.228 0 .414-.185.414-.414v-.391c.89-.185 1.494-1.015 1.4-1.918-.092-.903-.854-1.589-1.763-1.589-.52 0-.943-.423-.943-.944 0-.52.422-.942.943-.942.52 0 .943.422.943.942 0 .23.185.415.415.415.229 0 .415-.185.415-.415 0-.838-.59-1.562-1.41-1.735v-.378c0-.228-.186-.414-.414-.414-.23 0-.416.186-.416.414v.403c-.856.235-1.408 1.066-1.29 1.947.118.879.868 1.536 1.757 1.536.514 0 .932.412.942.925.01.513-.394.94-.907.959" transform="translate(-34 -1482) translate(34 1482)"/>
                <path fill="#1864EA" d="M11.408 6.472c2.866 0 5.19 2.323 5.19 5.19 0 2.865-2.324 5.189-5.19 5.189-2.866 0-5.19-2.324-5.19-5.19.004-2.865 2.326-5.187 5.19-5.19m-6.02 5.19c0 3.325 2.696 6.02 6.02 6.02 3.325 0 6.02-2.695 6.02-6.02 0-3.325-2.695-6.02-6.02-6.02-3.323.003-6.017 2.698-6.02 6.02" transform="translate(-34 -1482) translate(34 1482)"/>
                <g transform="translate(-34 -1482) translate(34 1482) translate(0 16.95)">
                    <mask id="3pe3c6p5zb" fill="#fff">
                        <use xlink:href="#12tk1b42ea"/>
                    </mask>
                    <path fill="#1864EA" d="M14.278 7.228c-.902.407-1.91.52-2.879.32L6.307 6.12c-.574-.162-1.187-.094-1.712.186l-.437.235.116-4.251c1.386-.921 3.162-1.016 4.636-.247l.305.158c.536.275 1.124.428 1.724.445l3.004.082c.842.025 1.559.626 1.73 1.45L11.2 4.055c-.229-.006-.42.174-.428.403-.004.229.176.421.404.426l4.936.137h.011c.225 0 .41-.18.415-.403.005-.182-.008-.362-.04-.54l3.335-1.575.011-.005c.472-.24 1.045-.16 1.433.201l-7 4.529zM.84 7.336L1.018.943l2.46.066-.175 6.396-2.462-.07zm18.634-5.581l-3.253 1.536c-.45-.835-1.31-1.367-2.258-1.393l-3.002-.084c-.475-.012-.942-.133-1.364-.352l-.305-.159C7.729.49 5.865.491 4.302 1.31L4.32.617c.006-.229-.173-.42-.403-.426L.626.101C.396.092.206.274.198.502L0 7.728c-.006.23.175.421.404.427l3.291.09h.013c.224 0 .408-.18.414-.403l.01-.345.855-.46c.337-.18.728-.223 1.094-.12l5.108 1.434c.008.004.018.005.027.007.368.077.745.115 1.121.115.8 0 1.589-.17 2.315-.504.017-.009.035-.017.052-.028l7.404-4.79c.185-.12.244-.362.136-.553-.55-.976-1.77-1.347-2.77-.843z" mask="url(#3pe3c6p5zb)"/>
                </g>
                <g transform="translate(-34 -1482) translate(34 1482) translate(9.684 .003)">
                    <mask id="azinuhl82d" fill="#fff">
                        <use xlink:href="#uz2rovfnsc"/>
                    </mask>
                    <path fill="#1864EA" d="M2.14 4.471V.527c0-.229-.187-.415-.417-.415-.229 0-.415.186-.415.415v3.944c0 .229.186.415.415.415.23 0 .417-.186.417-.415" mask="url(#azinuhl82d)"/>
                </g>
                <path fill="#1864EA" d="M14.936 4.474V2.606c0-.229-.185-.415-.415-.415-.229 0-.415.186-.415.415v1.868c0 .229.186.415.415.415.23 0 .415-.186.415-.415M8.71 4.474V2.606c0-.229-.185-.415-.415-.415-.229 0-.417.186-.417.415v1.868c0 .229.188.415.417.415.23 0 .415-.186.415-.415" transform="translate(-34 -1482) translate(34 1482)"/>
            </g>
        </g>
    </g>
</svg>
