<svg xmlns="http://www.w3.org/2000/svg" width="99" height="97" viewBox="0 0 99 97">
    <g fill="none" fill-rule="evenodd">
        <g>
            <g>
                <path fill="#FBB4B4" d="M48.481 0c26.776 0 48.482 21.706 48.482 48.48 0 26.777-21.706 48.483-48.482 48.483S.001 75.257.001 48.48C0 21.706 21.704 0 48.48 0" transform="translate(-132 -148) translate(132 148)"/>
                <path fill="#FFF" d="M68.286 84.051s-4.473-29.285-31.301-29.573C9.301 54.178 4.286 84.4 4.286 84.4l64-.348z" transform="translate(-132 -148) translate(132 148)"/>
                <path fill="#EFD82B" d="M47.402 57.683L36.989 70.303 25.784 57.06 34.5 54.74z" transform="translate(-132 -148) translate(132 148)"/>
                <path stroke="#000" stroke-linecap="round" stroke-width="3" d="M85.707 44.438L96.668 56.178" transform="translate(-132 -148) translate(132 148)"/>
                <path fill="#FFF" d="M69.132 5.218c13.322 0 24.122 10.8 24.122 24.122 0 13.321-10.8 24.121-24.122 24.121-13.321 0-24.12-10.8-24.12-24.121 0-13.322 10.799-24.122 24.12-24.122" transform="translate(-132 -148) translate(132 148)"/>
                <path fill="#000" d="M69.132 6.589c-12.609 0-22.75 10.142-22.75 22.75 0 12.609 10.141 22.752 22.75 22.752 12.61 0 22.75-10.143 22.75-22.752 0-12.608-10.14-22.75-22.75-22.75m0 48.242c-14.115 0-25.491-11.376-25.491-25.492 0-14.116 11.376-25.49 25.49-25.49 14.117 0 25.493 11.374 25.493 25.49 0 14.116-11.376 25.492-25.492 25.492" transform="translate(-132 -148) translate(132 148)"/>
                <path fill="#6BA0ED" d="M69.132 10.7c-10.279 0-18.639 8.361-18.639 18.64 0 5.208 2.056 9.867 5.483 13.157L69.132 29.34V10.7z" transform="translate(-132 -148) translate(132 148)"/>
                <path fill="#E1E6E7" d="M55.976 42.497c3.425 3.426 8.085 5.482 13.156 5.482 10.28 0 18.64-8.36 18.64-18.64h-18.64L55.976 42.497z" transform="translate(-132 -148) translate(132 148)"/>
                <path fill="#1864EA" d="M69.132 10.7v18.64h18.64c0-10.279-8.36-18.64-18.64-18.64" transform="translate(-132 -148) translate(132 148)"/>
                <path fill="#000" d="M85.599 74.994c.837 0 1.515.678 1.515 1.515 0 .837-.678 1.516-1.515 1.516-.836 0-1.514-.68-1.514-1.516 0-.837.678-1.515 1.514-1.515M85.599 82.57c.837 0 1.515.677 1.515 1.515 0 .836-.678 1.515-1.515 1.515-.836 0-1.514-.68-1.514-1.515 0-.838.678-1.516 1.514-1.516M85.599 90.145c.837 0 1.515.677 1.515 1.514s-.678 1.516-1.515 1.516c-.836 0-1.514-.68-1.514-1.516 0-.837.678-1.514 1.514-1.514M10 8.787c.836 0 1.514.678 1.514 1.515 0 .836-.678 1.515-1.514 1.515-.838 0-1.516-.679-1.516-1.515 0-.837.678-1.515 1.516-1.515M10 16.362c.836 0 1.514.678 1.514 1.515 0 .836-.678 1.515-1.514 1.515-.838 0-1.516-.679-1.516-1.515 0-.837.678-1.515 1.516-1.515M10 23.938c.836 0 1.514.678 1.514 1.514 0 .837-.678 1.516-1.514 1.516-.838 0-1.516-.679-1.516-1.516 0-.836.678-1.514 1.516-1.514" transform="translate(-132 -148) translate(132 148)"/>
                <path fill="#FFF" d="M51.36 31.967c0 8.03-6.515 16.06-14.544 16.06-8.03 0-14.545-7.879-14.545-16.06 0-8.18 6.515-14.545 14.545-14.545 8.029 0 14.544 6.516 14.544 14.545" transform="translate(-132 -148) translate(132 148)"/>
                <path fill="#000" d="M36.664 20.31c-7.122 0-13.03 5.908-13.03 13.03 0 7.574 6.213 14.543 13.03 14.543 6.817 0 13.03-6.969 13.03-14.544.15-7.273-5.759-13.029-13.03-13.029m0 30.452c-8.636 0-16.059-8.181-16.059-17.574 0-8.939 7.272-16.06 16.059-16.06 8.788 0 16.06 7.273 16.06 16.06.15 9.393-7.424 17.574-16.06 17.574M36.573 56.148c-10.635 0-18.994 4.702-24.846 13.978-3.104 4.92-4.674 9.923-5.354 12.59l59.858-.327c-.628-2.588-2.083-7.437-5.019-12.237-5.615-9.178-13.772-13.889-24.245-14.002l-.394-.002zM2.311 86.083l.326-1.956c.05-.316 5.53-31.324 33.94-31.324.143 0 .282.001.426.003 27.926.3 32.89 30.685 32.936 30.993l.292 1.914-67.92.37z" transform="translate(-132 -148) translate(132 148)"/>
                <path fill="#070707" d="M37.061 73.336L24.17 57.897 26.738 55.754 37.009 68.056 46.752 55.903 49.361 57.996z" transform="translate(-132 -148) translate(132 148)"/>
                <path fill="#000" d="M21.213 85.596c-.923 0-1.672-.749-1.672-1.672v-5.572c0-.923.75-1.672 1.672-1.672.924 0 1.673.75 1.673 1.672v5.572c0 .923-.75 1.672-1.673 1.672M51.993 85.596c-.923 0-1.673-.749-1.673-1.672v-5.572c0-.923.75-1.672 1.673-1.672s1.672.75 1.672 1.672v5.572c0 .923-.749 1.672-1.672 1.672" transform="translate(-132 -148) translate(132 148)"/>
            </g>
        </g>
    </g>
</svg>
