<svg xmlns="http://www.w3.org/2000/svg" xmlns:xlink="http://www.w3.org/1999/xlink" width="22" height="19" viewBox="0 0 22 19">
    <defs>
        <path id="8e33hjoq4a" d="M0 0.602L11.197 0.602 11.197 11.943 0 11.943z"/>
    </defs>
    <g fill="none" fill-rule="evenodd">
        <g>
            <g>
                <g transform="translate(-31 -1051) translate(31 1051) translate(0 .398)">
                    <mask id="lxj74xcunb" fill="#fff">
                        <use xlink:href="#8e33hjoq4a"/>
                    </mask>
                    <path fill="#1864EA" d="M3.134 3.85c0-1.375 1.105-2.495 2.465-2.495 1.359 0 2.465 1.12 2.465 2.495S6.958 6.345 5.599 6.345c-1.36 0-2.465-1.12-2.465-2.495m4.49 2.875l-.303-.118.255-.203c.782-.621 1.229-1.552 1.229-2.554 0-1.791-1.438-3.248-3.206-3.248S2.393 2.059 2.393 3.85c0 1.002.447 1.933 1.228 2.554l.255.203-.303.118c-.723.283-1.374.714-1.932 1.28C.6 9.058.019 10.454 0 11.943h.74C.78 9.265 2.945 7.098 5.6 7.098s4.82 2.167 4.858 4.845h.74c-.017-1.49-.598-2.885-1.64-3.938-.56-.567-1.21-.997-1.933-1.28" mask="url(#lxj74xcunb)"/>
                </g>
                <path stroke="#FAFBFC" d="M9.271 3.15L3.799 11.338" transform="translate(-31 -1051) translate(31 1051)"/>
                <path fill="#FFF" d="M10.98 17.968L21.453 17.968 16.216 9.813 10.98 1.658 5.744 9.813 0.507 17.968z" transform="translate(-31 -1051) translate(31 1051)"/>
                <path stroke="#1864EA" stroke-linecap="round" stroke-linejoin="round" stroke-width="1.1" d="M10.98 17.748L21.168 17.748 16.075 9.814 10.98 1.88 5.885 9.814 0.792 17.748z" transform="translate(-31 -1051) translate(31 1051)"/>
                <path fill="#EFD82B" d="M10.98 15.814L16.98 15.814 13.98 11.141 10.98 6.469 7.98 11.141 4.98 15.814z" transform="translate(-31 -1051) translate(31 1051)"/>
                <path stroke="#1864EA" stroke-linecap="round" stroke-linejoin="round" stroke-width="1.3" d="M10.98 9.59L10.98 12.09 10.98 9.59 10.98 7.09z" transform="translate(-31 -1051) translate(31 1051)"/>
                <path fill="#1864EA" d="M11.839 14.858c0 .475-.385.858-.858.858-.474 0-.86-.383-.86-.858 0-.474.386-.858.86-.858.473 0 .858.384.858.858" transform="translate(-31 -1051) translate(31 1051)"/>
            </g>
        </g>
    </g>
</svg>
