<svg xmlns="http://www.w3.org/2000/svg" xmlns:xlink="http://www.w3.org/1999/xlink" width="18" height="23" viewBox="0 0 18 23">
    <defs>
        <path id="md71w15g2a" d="M0 0.646L17.186 0.646 17.186 20 0 20z"/>
        <path id="zts0xwqulc" d="M0.443 0.502L4.743 0.502 4.743 1.938 0.443 1.938z"/>
    </defs>
    <g fill="none" fill-rule="evenodd">
        <g>
            <g>
                <path fill="#EFD82B" d="M3.047 6.961s7.31-.697 11.915 6.535c0 0 1.71-6.992-4.236-8.805-5.943-1.813-7.679 2.443-7.679 2.443v-.173zM5.893 19.143h5.516s-1.126 2.696-2.758 2.841c-1.63.146-2.758-2.84-2.758-2.84" transform="translate(-31 -576) translate(31 576)"/>
                <g transform="translate(-31 -576) translate(31 576) translate(0 2.498)">
                    <mask id="b8fo61ob4b" fill="#fff">
                        <use xlink:href="#md71w15g2a"/>
                    </mask>
                    <path fill="#1864EA" d="M6.597 17.137c.252.866 1.197 1.487 2.141 1.424.845-.057 1.731-.741 1.835-1.424H6.597zm8.632-1.448c-.224-.393-.424-.775-.653-1.137-.185-.296-.26-.6-.258-.95.011-1.902.007-3.804.002-5.707 0-.29-.013-.583-.053-.87C13.792 3.6 10.414 1.38 7.07 2.293c-2.458.67-4.19 2.91-4.207 5.462-.01 1.73.001 3.462-.007 5.192 0 .173-.04.357-.106.518-.274.668-.564 1.33-.848 1.994-.03.07-.055.145-.087.23H15.23zM5.07 17.133H1.16c-.133 0-.268.002-.402 0-.58-.008-.912-.498-.687-1.034.421-1.002.855-2 1.278-3.002.048-.112.074-.242.074-.364.005-1.641-.003-3.283.006-4.924.02-3.415 2.36-6.287 5.7-7.007 3.582-.773 7.265 1.405 8.316 4.917.213.712.313 1.439.313 2.183-.002 1.872-.003 3.745.003 5.618 0 .119.035.25.093.355.39.697.79 1.387 1.183 2.079.361.635.04 1.179-.689 1.178H12.11c-.218.95-.71 1.708-1.51 2.252-.649.442-1.37.643-2.156.613-1.329-.05-2.89-.912-3.375-2.864z" mask="url(#b8fo61ob4b)"/>
                </g>
                <g transform="translate(-31 -576) translate(31 576) translate(6 .498)">
                    <mask id="jv0d745bbd" fill="#fff">
                        <use xlink:href="#zts0xwqulc"/>
                    </mask>
                    <path fill="#1864EA" d="M2.617.504c.454 0 .908-.002 1.363 0 .437.003.758.304.763.708.004.413-.32.724-.767.725-.923.003-1.847.002-2.77-.001-.438-.001-.76-.304-.763-.707C.438.813.76.506 1.209.504 1.679.5 2.147.503 2.617.503z" mask="url(#jv0d745bbd)"/>
                </g>
            </g>
        </g>
    </g>
</svg>
