<svg xmlns="http://www.w3.org/2000/svg" width="24" height="22" viewBox="0 0 24 22">
    <g fill="none" fill-rule="evenodd">
        <g fill-rule="nonzero">
            <g>
                <path fill="#FFDC64" d="M23.434 7.948l-7.774-.693L12.572.362c-.216-.483-.928-.483-1.144 0L8.34 7.255l-7.774.693c-.544.048-.764.699-.353 1.046l5.865 4.953-1.717 7.32c-.12.513.456.916.926.647L12 18.083l6.713 3.831c.47.269 1.046-.134.926-.646l-1.717-7.321 5.865-4.953c.411-.347.191-.998-.353-1.046z" transform="translate(-15 -362) translate(15 362)"/>
                <path fill="#FFC850" d="M12.84.362c-.22-.483-.947-.483-1.168 0L8.518 7.255l-7.94.693c-.556.048-.78.699-.36 1.046l5.99 4.953-1.753 7.32c-.123.513.465.916.945.647l1.53-.855c.212-8.205 4.263-13.983 7.47-17.289L12.84.362z" transform="translate(-15 -362) translate(15 362)"/>
            </g>
        </g>
    </g>
</svg>
