<svg xmlns="http://www.w3.org/2000/svg" xmlns:xlink="http://www.w3.org/1999/xlink" width="33" height="33" viewBox="0 0 33 33">
    <defs>
        <path id="ik096x2cja" d="M0.764 0.608L26.296 0.608 26.296 10.647 0.764 10.647z"/>
        <path id="3vu2u3u6oc" d="M0 0.608L31.629 0.608 31.629 32 0 32z"/>
    </defs>
    <g fill="none" fill-rule="evenodd">
        <g>
            <g>
                <path fill="#EFD82B" d="M26.946 7.836h4.096V3.06s-3.293-3.264-4.244.326l.148 4.451zM24.917 16.568c0-2.762-2.239-5-4.999-5-2.761 0-5 2.238-5 5s2.239 5 5 5c2.76 0 5-2.238 5-5" transform="translate(-32 -262) translate(32 262)"/>
                <g transform="translate(-32 -262) translate(32 262) translate(5.333 .726)">
                    <mask id="pbnssphivb" fill="#fff">
                        <use xlink:href="#ik096x2cja"/>
                    </mask>
                    <path fill="#1864EA" d="M24.997 6.69h-2.856V3.332c0-.786.642-1.426 1.43-1.426.786 0 1.426.64 1.426 1.426V6.69zM23.571.607H1.415c-.36 0-.651.29-.651.65 0 .358.29.649.65.649h19.834c-.256.416-.404.904-.404 1.426v6.666c0 .358.29.65.65.65.358 0 .647-.292.647-.65v-2.01h3.506c.358 0 .649-.292.649-.649V3.332c0-1.502-1.223-2.725-2.725-2.725z" mask="url(#pbnssphivb)"/>
                </g>
                <g transform="translate(-32 -262) translate(32 262) translate(0 .726)">
                    <mask id="s4tmcp80hd" fill="#fff">
                        <use xlink:href="#3vu2u3u6oc"/>
                    </mask>
                    <path fill="#1864EA" d="M29.99 25.925c-.217.22-.509.34-.817.342h-.006c-.306 0-.59-.118-.8-.328l-4.015-4.016c.624-.459 1.177-1.01 1.636-1.636l4.015 4.014c.445.444.438 1.174-.012 1.624zm-3.813 3.35c0 .786-.641 1.426-1.428 1.426-.786 0-1.428-.64-1.428-1.426v-.327l-.002-.063.002-.064v-1.426c0-.359-.29-.65-.648-.65H7.356v-8.008l1.19-1.189 3.125 3.125c.121.122.286.19.458.19.171 0 .336-.068.458-.19l.908-.908c1.325 2.16 3.708 3.606 6.422 3.606 1.179 0 2.295-.274 3.288-.758l2.972 2.971v3.69zM5.28 30.7c-.788 0-1.428-.64-1.428-1.426v-1.232h18.17v.778c0 .022.002.043.005.064-.003.02-.004.042-.004.063v.327c0 .522.149 1.012.405 1.426H5.28zM19.917 9.612c3.435 0 6.231 2.795 6.231 6.23 0 3.435-2.796 6.23-6.23 6.23-2.36 0-4.417-1.317-5.474-3.256l3.75-3.75v1.471c0 .36.291.65.65.65.359 0 .65-.29.65-.65v-3.113c0-.359-.291-.65-.65-.65h-3.115c-.358 0-.649.291-.649.65 0 .359.29.648.65.648h1.622l-3.437 3.439c-.148-.53-.228-1.09-.228-1.668 0-3.436 2.794-6.23 6.23-6.23zM30.92 23.384l-4.239-4.239c.49-.997.764-2.118.764-3.302 0-4.152-3.376-7.528-7.528-7.528-4.15 0-7.528 3.376-7.528 7.528 0 .948.178 1.857.499 2.693l-.759.76-3.125-3.124c-.121-.121-.287-.19-.459-.19-.172 0-.337.069-.458.19l-.731.73V1.256c0-.36-.29-.649-.65-.649-.357 0-.647.29-.647.65V18.2l-5.87 5.868c-.252.253-.252.664 0 .919.128.126.294.19.46.19.166 0 .332-.064.459-.19l4.95-4.95v6.708H3.204c-.358 0-.648.291-.648.65v1.88C2.555 30.777 3.777 32 5.28 32h19.47c1.502 0 2.725-1.223 2.725-2.725V26.88c.454.442 1.053.683 1.692.683h.013c.653-.003 1.267-.259 1.728-.721.957-.956.963-2.508.012-3.459z" mask="url(#s4tmcp80hd)"/>
                </g>
                <path fill="#1864EA" d="M20.302 4.838h-5.028c-.357 0-.648.29-.648.648 0 .359.29.65.648.65h5.028c.359 0 .648-.291.648-.65 0-.357-.29-.648-.648-.648M23.971 5.028c-.121-.121-.29-.19-.46-.19-.17 0-.337.069-.457.19-.122.12-.19.288-.19.459 0 .17.068.338.19.458.12.12.286.191.457.191.17 0 .339-.07.46-.19.12-.12.19-.289.19-.46 0-.17-.07-.338-.19-.458" transform="translate(-32 -262) translate(32 262)"/>
            </g>
        </g>
    </g>
</svg>
