<svg xmlns="http://www.w3.org/2000/svg" xmlns:xlink="http://www.w3.org/1999/xlink" width="19" height="19" viewBox="0 0 19 19">
    <defs>
        <path id="zwhb08uuoa" d="M0.48 0.642L5.036 0.642 5.036 1.81 0.48 1.81z"/>
        <path id="igdsw0uodc" d="M0 18.299L18.182 18.299 18.182 0 0 0z"/>
    </defs>
    <g fill="none" fill-rule="evenodd">
        <g>
            <g transform="translate(-314 -127) translate(314 127)">
                <path fill="#9C9C9C" d="M10.93 13.29c-.208.096-.34.303-.34.531v1.636H7.593V13.8c0-.23-.137-.44-.348-.533-1.587-.706-2.612-2.292-2.612-4.04 0-2.459 2-4.46 4.458-4.46s4.458 2.001 4.458 4.46c0 1.735-1.028 3.33-2.62 4.063M9.091 3.6c-3.103 0-5.626 2.524-5.626 5.626 0 2.081 1.15 3.98 2.96 4.94v1.873c0 .323.261.585.583.585h4.167c.322 0 .583-.262.583-.585v-1.859c1.809-.984 2.959-2.89 2.959-4.954 0-3.102-2.525-5.625-5.626-5.625"/>
                <g transform="translate(6.333 16.489)">
                    <mask id="sbgtmb2qpb" fill="#fff">
                        <use xlink:href="#zwhb08uuoa"/>
                    </mask>
                    <path fill="#9C9C9C" d="M4.451.642H1.065C.74.642.48.903.48 1.226c0 .322.26.584.585.584H4.45c.322 0 .585-.262.585-.584 0-.323-.263-.584-.585-.584" mask="url(#sbgtmb2qpb)"/>
                </g>
                <mask id="yhkfzfznjd" fill="#fff">
                    <use xlink:href="#igdsw0uodc"/>
                </mask>
                <path fill="#9C9C9C" d="M8.507 2.434L9.675 2.434 9.675.001 8.507.001zM0 9.675L2.433 9.675 2.433 8.507 0 8.507zM15.748 9.675L18.181 9.675 18.181 8.507 15.748 8.507zM2.256 3.082L3.077 2.252 4.81 3.965 3.989 4.796zM13.371 3.965L15.104 2.252 15.926 3.083 14.193 4.795z" mask="url(#yhkfzfznjd)"/>
            </g>
        </g>
    </g>
</svg>
