<svg xmlns="http://www.w3.org/2000/svg" xmlns:xlink="http://www.w3.org/1999/xlink" width="19" height="23" viewBox="0 0 19 23">
    <defs>
        <path id="xulwp3ctua" d="M0 0.587L18.942 0.587 18.942 11.295 0 11.295z"/>
        <path id="def3l6veoc" d="M0.647 0.293L16.294 0.293 16.294 9.646 0.647 9.646z"/>
    </defs>
    <g fill="none" fill-rule="evenodd">
        <g>
            <g>
                <path fill="#EFD82B" d="M3.019 11.418l3.195 3.027S8.36 13.1 9.537 13.31c1.177.21 2.733.756 3.028 1.176l3.447-3.152s-3.868-2.902-6.475-2.607c-2.608.293-5.551.923-6.518 2.69" transform="translate(-34 -1563) translate(34 1563)"/>
                <path fill="#1864EA" d="M12.043 5.235h-4.77c-.269 0-.487.158-.487.353 0 .194.218.352.487.352h4.77c.27 0 .487-.158.487-.352 0-.195-.217-.353-.487-.353M9.742 20.115c-.09-.091-.216-.143-.344-.143-.128 0-.254.052-.343.143-.091.09-.143.216-.143.344 0 .128.052.254.143.344.089.09.215.143.343.143.128 0 .254-.053.344-.143.09-.09.143-.216.143-.344 0-.128-.052-.253-.143-.344" transform="translate(-34 -1563) translate(34 1563)"/>
                <g transform="translate(-34 -1563) translate(34 1563) translate(0 7.707)">
                    <mask id="p7lje5jtmb" fill="#fff">
                        <use xlink:href="#xulwp3ctua"/>
                    </mask>
                    <path fill="#1864EA" d="M14.395 9.647c-.031-.359-.102-.714-.211-1.057l1.928-.783-.31-.763-1.926.783c-.174-.342-.388-.66-.637-.953l2.623-2.623c1.355 1.481 2.15 3.39 2.247 5.396h-3.714zm-4.513-4.51V1.43c2.005.094 3.914.885 5.398 2.238l-2.623 2.623c-.782-.665-1.752-1.069-2.775-1.155zM6.286 6.29L3.663 3.668c1.483-1.352 3.39-2.144 5.396-2.237v3.706c-1.022.085-1.992.49-2.773 1.154zm-1.74 3.356H.834c.096-2.007.89-3.916 2.247-5.397l2.623 2.623c-.665.781-1.07 1.751-1.156 2.774zm5.079.793c-.1.041-.213.04-.314-.003-.101-.042-.181-.123-.222-.224-.062-.154-.026-.332.092-.449.119-.117.297-.15.45-.086.1.042.18.122.22.224.043.101.042.216 0 .316-.043.101-.124.181-.226.222zM9.47.587C4.243.593.006 4.83 0 10.058c0 .228.184.412.412.412h4.53c.226 0 .41-.184.41-.412.004-1.89 1.293-3.537 3.129-3.99 1.836-.456 3.745.397 4.629 2.07L10.39 9.24c-.417-.467-1.118-.546-1.63-.185-.511.362-.67 1.05-.368 1.6.3.548.966.783 1.545.547.483-.198.789-.678.766-1.199L13.422 8.9c.11.376.167.767.166 1.158 0 .228.185.412.412.412h4.53c.227 0 .412-.184.412-.412C18.936 4.83 14.7.593 9.47.588z" mask="url(#p7lje5jtmb)"/>
                </g>
                <path fill="#1864EA" d="M16.471 21.06c0 .454-.369.823-.823.823H3.294c-.455 0-.823-.369-.823-.824V19h-.824v2.06c0 .91.737 1.646 1.647 1.646h12.354c.91 0 1.646-.737 1.646-1.647V19h-.823v2.06z" transform="translate(-34 -1563) translate(34 1563)"/>
                <g transform="translate(-34 -1563) translate(34 1563) translate(1 .707)">
                    <mask id="vvj3sfdkmd" fill="#fff">
                        <use xlink:href="#def3l6veoc"/>
                    </mask>
                    <path fill="#1864EA" d="M16.294 9.646V1.94c0-.909-.737-1.648-1.646-1.648H2.294c-.91 0-1.647.74-1.647 1.648v7.706h.824V1.94c0-.455.368-.823.823-.823h12.354c.454 0 .823.368.823.823v7.706h.823z" mask="url(#vvj3sfdkmd)"/>
                </g>
            </g>
        </g>
    </g>
</svg>
