<svg xmlns="http://www.w3.org/2000/svg" xmlns:xlink="http://www.w3.org/1999/xlink" width="22" height="21" viewBox="0 0 22 21">
    <defs>
        <path id="mhg1kancaa" d="M0 0.169L21.008 0.169 21.008 16 0 16z"/>
    </defs>
    <g fill="none" fill-rule="evenodd">
        <g>
            <g>
                <path fill="#EFD82B" d="M11.994 19.91H9.275c-.219 0-.397-.178-.397-.397v-7.56c0-.22.178-.397.397-.397h2.72c.218 0 .395.177.395.397v7.56c0 .22-.177.397-.396.397M18.682 13.808h-2.72c-.218 0-.396-.178-.396-.396V5.85c0-.22.178-.397.397-.397h2.719c.219 0 .396.178.396.397v7.56c0 .219-.177.397-.396.397" transform="translate(-35 -1411) translate(35 1411)"/>
                <g transform="translate(-35 -1411) translate(35 1411) translate(0 4.65)">
                    <mask id="krnmc4qocb" fill="#fff">
                        <use xlink:href="#mhg1kancaa"/>
                    </mask>
                    <path fill="#1864EA" d="M18.758 15.134h-2.721V1.333c0-.164.134-.298.298-.298h2.124c.165 0 .299.134.299.298v13.8zm-6.868 0H9.169V7.586c0-.164.134-.298.299-.298h2.124c.164 0 .298.134.298.298v7.548zm-6.867 0H2.302v-3.91c0-.163.134-.297.298-.297h2.125c.164 0 .298.134.298.298v3.909zm15.552 0h-.951V1.333c0-.641-.522-1.164-1.165-1.164h-2.124c-.642 0-1.165.523-1.165 1.164v13.8h-2.413V7.587c0-.642-.522-1.165-1.165-1.165H9.468c-.643 0-1.165.523-1.165 1.165v7.548H5.89v-3.91c0-.642-.523-1.164-1.165-1.164H2.6c-.642 0-1.164.522-1.164 1.165v3.909H.434c-.24 0-.434.193-.434.433S.195 16 .434 16h20.14c.24 0 .434-.193.434-.433s-.193-.433-.433-.433z" mask="url(#krnmc4qocb)"/>
                </g>
                <path fill="#1864EA" d="M18.531.456c.006-.118-.036-.239-.126-.329-.09-.091-.21-.132-.329-.126L18.056 0h-2.623C15.194 0 15 .194 15 .434c0 .239.194.432.433.432h1.62L12.767 5.15l-1.615-1.615c-.08-.081-.19-.127-.307-.127-.114 0-.224.046-.306.127l-7.79 7.79c-.169.169-.169.444 0 .613.085.084.196.126.306.126.112 0 .222-.042.307-.127l7.483-7.483 1.616 1.615c.17.17.444.17.613 0l4.59-4.59v1.465c0 .24.194.434.433.434.24 0 .434-.194.434-.434V.477.456M1.597 12.71c.239 0 .433.194.433.434 0 .239-.194.433-.433.433-.24 0-.434-.194-.434-.433 0-.24.194-.434.434-.434" transform="translate(-35 -1411) translate(35 1411)"/>
            </g>
        </g>
    </g>
</svg>
