<svg xmlns="http://www.w3.org/2000/svg" xmlns:xlink="http://www.w3.org/1999/xlink" width="33" height="37" viewBox="0 0 33 37">
    <defs>
        <path id="llf9ht624a" d="M0.133 0.858L20.934 0.858 20.934 28.285 0.133 28.285z"/>
        <path id="kv1bfnj78c" d="M0 35.31L31.968 35.31 31.968 0.857 0 0.857z"/>
    </defs>
    <g fill="none" fill-rule="evenodd">
        <g>
            <g>
                <path fill="#EFD82B" d="M24.695 7.324L25.887 8.341 30.985 8.15 24.695 2.347zM21.823 27.737L30.985 27.737 30.985 23.769 21.823 23.769z" transform="translate(-32 -423) translate(32 423)"/>
                <g transform="translate(-32 -423) translate(32 423) translate(0 .246)">
                    <g transform="translate(11.034)">
                        <mask id="29hb3bl83b" fill="#fff">
                            <use xlink:href="#llf9ht624a"/>
                        </mask>
                        <path fill="#1864EA" d="M19.69 26.033c0 .556-.452 1.008-1.009 1.008H2.385c-.556 0-1.008-.452-1.008-1.008V3.11c0-.556.452-1.007 1.008-1.007H13.17v4.267c0 1.241 1.01 2.252 2.252 2.252h4.267v17.412zM14.414 2.98l4.397 4.396h-3.388c-.556 0-1.009-.451-1.009-1.007V2.98zm-.182-1.94c-.115-.116-.275-.182-.44-.182H2.385C1.143.858.133 1.868.133 3.109v22.924c0 1.242 1.01 2.252 2.252 2.252H18.68c1.242 0 2.253-1.01 2.253-2.252V7.997c0-.162-.068-.323-.184-.438L14.232 1.04z" mask="url(#29hb3bl83b)"/>
                    </g>
                    <mask id="3jeqk6wtqd" fill="#fff">
                        <use xlink:href="#kv1bfnj78c"/>
                    </mask>
                    <path fill="#FFF" d="M0.634 34.82L21.823 34.82 21.823 8.981 0.634 8.981z" mask="url(#3jeqk6wtqd)"/>
                    <path fill="#EFD82B" d="M10.955 18.969h-6.43c-.274 0-.497-.222-.497-.497v-5.198c0-.275.223-.497.496-.497h6.431c.275 0 .497.222.497.497v5.198c0 .275-.222.497-.497.497" mask="url(#3jeqk6wtqd)"/>
                    <path fill="#1864EA" d="M20.554 7.904H1.904C.854 7.904 0 8.757 0 9.807v6.471c0 .35.284.634.634.634.35 0 .634-.284.634-.634v-6.47c0-.35.285-.635.636-.635h18.65c.35 0 .635.285.635.634v23.6c0 .35-.285.634-.635.634H1.904c-.351 0-.636-.283-.636-.634V21.629c0-.351-.283-.636-.634-.636-.35 0-.634.285-.634.636v11.778c0 1.05.853 1.903 1.904 1.903h18.65c1.05 0 1.905-.854 1.905-1.903v-23.6c0-1.05-.855-1.903-1.905-1.903" mask="url(#3jeqk6wtqd)"/>
                    <path fill="#1864EA" d="M11.152 20.776c-.298.3-.299.825 0 1.124l2.25 2.249H7.117c-.438 0-.794.355-.794.792 0 .438.356.795.794.795h6.365l-2.33 2.33c-.15.151-.233.351-.233.562 0 .212.082.41.232.562.152.15.349.232.562.232.21 0 .412-.082.562-.232l3.634-3.636c.145-.144.224-.345.224-.568 0-.224-.081-.432-.224-.572l-3.634-3.638c-.15-.15-.351-.233-.562-.233-.212 0-.41.083-.562.233" mask="url(#3jeqk6wtqd)"/>
                    <path fill="#FFF" d="M23.009 20.9c.298-.298.299-.824 0-1.123L20.76 17.53h6.283c.438 0 .795-.357.795-.794 0-.438-.357-.794-.795-.794H20.68l2.33-2.33c.151-.152.233-.352.233-.562 0-.212-.082-.41-.233-.562-.15-.15-.349-.233-.562-.233-.21 0-.41.083-.561.233l-3.635 3.636c-.145.143-.224.344-.224.567v.001c0 .223.083.432.224.573l3.635 3.637c.15.15.35.233.561.233.212 0 .412-.083.562-.233" mask="url(#3jeqk6wtqd)"/>
                    <path stroke="#FFF" stroke-width="2" d="M23.009 20.9c.298-.298.299-.824 0-1.123L20.76 17.53h6.283c.438 0 .795-.357.795-.794 0-.438-.357-.794-.795-.794H20.68l2.33-2.33c.151-.152.233-.352.233-.562 0-.212-.082-.41-.233-.562-.15-.15-.349-.233-.562-.233-.21 0-.41.083-.561.233l-3.635 3.636c-.145.143-.224.344-.224.567v.001c0 .223.083.432.224.573l3.635 3.637c.15.15.35.233.561.233.212 0 .412-.083.562-.233z" mask="url(#3jeqk6wtqd)"/>
                    <path fill="#1864EA" d="M23.009 20.9c.298-.298.299-.824 0-1.123L20.76 17.53h6.283c.438 0 .795-.357.795-.794 0-.438-.357-.794-.795-.794H20.68l2.33-2.33c.151-.152.233-.352.233-.562 0-.212-.082-.41-.233-.562-.15-.15-.349-.233-.562-.233-.21 0-.41.083-.561.233l-3.635 3.636c-.145.143-.224.344-.224.567v.001c0 .223.083.432.224.573l3.635 3.637c.15.15.35.233.561.233.212 0 .412-.083.562-.233M1.083 18.67c-.118-.118-.282-.185-.449-.185-.166 0-.33.067-.448.185s-.185.283-.185.448c0 .168.067.331.185.45.118.117.282.185.448.185.167 0 .331-.068.45-.186.116-.118.185-.281.185-.449 0-.166-.069-.33-.186-.448M9.705 13.937H5.774c-.31 0-.561.284-.561.634 0 .352.25.634.56.634h3.932c.31 0 .563-.282.563-.634 0-.35-.253-.634-.563-.634M9.705 16.637H5.774c-.31 0-.561.283-.561.634 0 .351.25.634.56.634h3.932c.31 0 .563-.283.563-.634 0-.35-.253-.634-.563-.634" mask="url(#3jeqk6wtqd)"/>
                </g>
            </g>
        </g>
    </g>
</svg>
