<svg xmlns="http://www.w3.org/2000/svg" width="95" height="120" viewBox="0 0 95 120">
    <g fill="none" fill-rule="evenodd">
        <g fill-rule="nonzero">
            <g>
                <path fill="#FDBF27" d="M83 11.107v97.786C83 115.027 78.031 120 71.901 120H11.1C4.969 120 0 115.028 0 108.894V98.88c0-.743.602-1.345 1.344-1.345 2.396 0 4.345-1.915 4.396-4.305.05-2.47-2.041-4.494-4.51-4.494-.68 0-1.23-.55-1.23-1.231l.005-41c0-.456.318-.848.763-.943 1.996-.43 3.388-2.513 2.66-4.751-.396-1.215-1.443-2.078-2.668-2.334-.444-.092-.76-.488-.76-.942v-26.43C0 4.974 4.969 0 11.099 0H71.9C78.031 0 83 4.973 83 11.107z" transform="translate(-123 -59) translate(123 59)"/>
                <path fill="#FCF9DE" d="M80.901 120H20.1C13.969 120 9 115.028 9 108.893V11.107C9 4.973 13.969 0 20.099 0H80.9C87.031 0 92 4.973 92 11.107v97.786C92 115.028 87.031 120 80.901 120z" transform="translate(-123 -59) translate(123 59)"/>
                <g fill="#F8D45F">
                    <path d="M1.195 3.31l9.677 4.794c.496.245 1.08.245 1.575 0l8.89-4.404 8.889 4.404c.496.245 1.08.245 1.575 0l8.89-4.404 8.89 4.404c.248.123.518.184.788.184s.54-.061.788-.184l9.678-4.795c.87-.43 1.223-1.479.788-2.341-.435-.862-1.493-1.212-2.363-.78L50.369 4.59 41.479.187c-.497-.246-1.08-.245-1.576 0l-8.89 4.404-8.89-4.404c-.495-.246-1.078-.245-1.574 0l-8.89 4.404L2.772.187C1.9-.243.842.105.407.967c-.435.863-.082 1.91.788 2.342zM1.195 21.98l9.677 4.794c.496.246 1.08.246 1.575 0l8.89-4.404 8.889 4.404c.496.246 1.08.246 1.575 0l8.89-4.404 8.89 4.404c.248.123.518.185.788.185s.54-.062.788-.185l9.678-4.794c.87-.432 1.223-1.48.788-2.342-.435-.862-1.493-1.212-2.363-.78l-8.891 4.404-8.89-4.405c-.497-.245-1.08-.245-1.576 0l-8.89 4.405-8.89-4.405c-.495-.245-1.078-.245-1.574 0l-8.89 4.405-8.888-4.405c-.87-.43-1.929-.081-2.364.78-.435.863-.082 1.911.788 2.342zM1.195 40.65l9.677 4.795c.496.245 1.08.245 1.575 0l8.89-4.405 8.889 4.405c.496.245 1.08.245 1.575 0l8.89-4.405 8.89 4.405c.248.123.518.184.788.184s.54-.061.788-.184l9.678-4.795c.87-.431 1.223-1.48.788-2.342-.435-.861-1.493-1.211-2.363-.78l-8.891 4.404-8.89-4.404c-.497-.246-1.08-.245-1.576 0l-8.89 4.404-8.89-4.404c-.495-.246-1.078-.245-1.574 0l-8.89 4.404-8.888-4.404c-.87-.431-1.929-.082-2.364.78-.435.863-.082 1.911.788 2.342zM60.048 70.507H1.983c-.973 0-1.762.781-1.762 1.745 0 .964.79 1.745 1.762 1.745h58.065c.973 0 1.761-.781 1.761-1.745 0-.964-.789-1.745-1.761-1.745z" transform="translate(-123 -59) translate(123 59) translate(19 23)"/>
                </g>
            </g>
        </g>
    </g>
</svg>
