<svg xmlns="http://www.w3.org/2000/svg" xmlns:xlink="http://www.w3.org/1999/xlink" width="304" height="151" viewBox="0 0 304 151">
    <defs>
        <path id="sq1wtwmiea" d="M0 0.162L37.479 0.162 37.479 42 0 42z"/>
    </defs>
    <g fill="none" fill-rule="evenodd">
        <g>
            <g>
                <g opacity=".582">
                    <path stroke="#DADADA" stroke-dasharray="3 5" stroke-linecap="square" d="M.5 150.5L303.5 150.5M.5 120.5L303.5 120.5M.5 90.5L303.5 90.5M.5 60.5L303.5 60.5M.5 30.5L303.5 30.5M.5.5L303.5.5" opacity=".692" transform="translate(-26 -194) translate(26 194)"/>
                </g>
                <text fill="#383838" font-family="NunitoSans-Regular, Nunito Sans" font-size="14" letter-spacing=".2" transform="translate(-26 -194) translate(26 194)">
                    <tspan x="53.178" y="91">Take the guess work out of your </tspan> <tspan x="60.513" y="110">investment journey with Qfinr</tspan>
                </text>
                <path fill="#FBF8E3" d="M142.105 23.938l22.402-5.703c7.985-2.033 16.107 2.793 18.14 10.778.622 2.444.614 5.005-.022 7.444l-3.353 12.865c-1.846 7.083-7.597 12.476-14.784 13.863L145.71 66.81c-8.685 1.677-17.085-4.005-18.762-12.69-.321-1.666-.376-3.372-.162-5.055l1.157-9.108c.983-7.74 6.6-14.093 14.16-16.018z" transform="translate(-26 -194) translate(26 194)"/>
                <g>
                    <path fill="#B59F89" d="M6 40c0-5.352 3.93-8 9.5-8s9.5 2.648 9.5 8" transform="translate(-26 -194) translate(26 194) translate(137 13)"/>
                    <path fill="#A6E8CA" d="M15.214 7.645c-.408-3.039-2.82-5.451-5.858-5.86l-5.753-.77C2.101.85.85 2.1 1.015 3.603l.771 5.752c.408 3.039 2.82 5.45 5.86 5.86l5.75.77c1.503.165 2.754-1.086 2.59-2.588l-.772-5.752zM21.17 8.626c1.94-2.473 5.279-3.31 8.107-2.035l5.354 2.415c1.38.664 1.801 2.446.874 3.688l-3.674 4.68c-1.94 2.472-5.28 3.31-8.108 2.035l-5.354-2.415c-1.38-.663-1.801-2.445-.874-3.687l3.674-4.681z" transform="translate(-26 -194) translate(26 194) translate(137 13)"/>
                    <path fill="#74D6A7" d="M13.402 15.985l-3.179-.427c.652-.471 1.05-1.273.954-2.162l-.77-5.75c-.408-3.04-2.815-5.452-5.847-5.86L2 1.442c.448-.326 1.018-.494 1.63-.428l5.739.772c3.032.408 5.44 2.82 5.847 5.86l.77 5.75c.163 1.503-1.085 2.754-2.584 2.59M35.5 12.06l-3.702 4.446c-1.955 2.349-5.32 3.144-8.171 1.932l-5.395-2.294c-.603-.273-1.024-.746-1.232-1.291l1.735.737c2.85 1.212 6.215.416 8.17-1.932l3.703-4.446c.53-.668.623-1.5.351-2.212l3.662 1.557c1.39.631 1.814 2.323.88 3.503" transform="translate(-26 -194) translate(26 194) translate(137 13)"/>
                    <path fill="#A18B76" d="M20.55 41v-1.183c0-2.614-1.127-3.331-2.948-5.044-1.253-1.177-2.834-2.046-4.602-2.475.804-.195 1.647-.298 2.516-.298 2.78 0 5.298 1.06 7.12 2.773S25 37.203 25 39.817" transform="translate(-26 -194) translate(26 194) translate(137 13)"/>
                    <g transform="translate(-26 -194) translate(26 194) translate(137 13)">
                        <mask id="s2wj46185b" fill="#fff">
                            <use xlink:href="#sq1wtwmiea"/>
                        </mask>
                        <path fill="#000" d="M7.766 40.172c0-4.778 3.367-6.963 8.214-6.963 4.848 0 8.215 2.185 8.215 6.963m-10.06-24.814c-.038 0-.077-.002-.116-.005l-5.922-.781c-2.628-.349-4.71-2.4-5.063-4.99l-.788-5.797c-.036-.428.096-.786.367-1.053.272-.267.637-.393 1.022-.364l5.923.782c2.628.348 4.71 2.4 5.063 4.99l.788 5.796c.036.428-.096.785-.366 1.052-.243.24-.563.37-.908.37m4.205-1.37l.027-.035 3.728-4.55c1.667-2.034 4.529-2.72 6.957-1.67l5.432 2.346c.39.19.632.488.722.856.09.366.014.738-.214 1.049l-3.755 4.583c-1.146 1.398-2.853 2.16-4.598 2.16-.796 0-1.598-.158-2.359-.487l-5.433-2.347c-.39-.192-.63-.49-.72-.855-.091-.368-.015-.74.213-1.05M30.266 42h-3.835v-1.828c0-5.529-3.623-8.468-9.19-9.095l-.531-.06-.183-.496c-.688-1.87-2.094-7.336-.285-12.399l.358-1.002.913.563c.123.075.249.144.38.204l5.49 2.371c1.031.446 2.125.672 3.251.672 2.48 0 4.791-1.085 6.341-2.976l3.75-4.574c.676-.867.907-1.94.653-2.968s-.961-1.876-1.94-2.328l-5.49-2.37c-3.348-1.448-7.294-.5-9.591 2.304l-3 3.659-.52-3.83C16.35 4.275 13.48 1.445 9.854.965L3.943.183C2.84.065 1.79.427 1.03 1.175.27 1.923-.096 2.959.02 4.019l.797 5.855c.486 3.572 3.357 6.402 6.982 6.882l6.233.824-.267.943c-1.25 4.406-.53 9.052.293 11.697l.271.869-.897.21c-4.992 1.168-7.903 3.814-7.903 8.873V42H1.118" mask="url(#s2wj46185b)"/>
                    </g>
                </g>
            </g>
        </g>
    </g>
</svg>
