<svg xmlns="http://www.w3.org/2000/svg" xmlns:xlink="http://www.w3.org/1999/xlink" width="16" height="17" viewBox="0 0 16 17">
    <defs>
        <linearGradient id="zktluuccoa" x1="50%" x2="50%" y1="11.112%" y2="100%">
            <stop offset="0%" stop-color="#D1E2F5"/>
            <stop offset="100%" stop-color="#E9E9E9"/>
        </linearGradient>
        <path id="bgb7yqu1ab" d="M0 0.517L15.608 0.517 15.608 16 0 16z"/>
    </defs>
    <g fill="none" fill-rule="evenodd">
        <g>
            <g>
                <g transform="translate(-244 -222) translate(244 222) translate(0 .284)">
                    <path fill="url(#zktluuccoa)" d="M0 8.716h4v5c0 1.105-.895 2-2 2s-2-.895-2-2v-5z"/>
                    <mask id="lwda83iy5c" fill="#fff">
                        <use xlink:href="#bgb7yqu1ab"/>
                    </mask>
                    <path fill="#034BD9" d="M3.521 8.913v4.815c0 .748-.589 1.356-1.313 1.356S.896 14.476.896 13.728V8.913H3.52zm11.192-7.48v12.295c0 .748-.589 1.356-1.312 1.356H3.98c.284-.39.437-.865.437-1.356V1.432h10.297zm.448-.917H3.97c-.247 0-.448.206-.448.458v7.022H.448c-.247 0-.448.206-.448.46v5.272C0 14.98.99 16 2.208 16H13.4c1.217 0 2.207-1.02 2.207-2.272V.974c0-.252-.2-.458-.447-.458z" mask="url(#lwda83iy5c)"/>
                </g>
                <path fill="#034BD9" d="M9.573 6.259h3.599c.21 0 .381-.206.381-.458 0-.254-.17-.46-.381-.46H9.573c-.21 0-.381.206-.381.46 0 .252.171.458.381.458M9.573 11.203h3.599c.21 0 .381-.205.381-.457 0-.254-.17-.46-.381-.46H9.573c-.21 0-.381.206-.381.46 0 .252.171.457.381.457M6.391 7.039c.076.08.181.124.292.124.11 0 .216-.048.292-.13l1.632-1.788c.148-.161.136-.413-.026-.562-.078-.071-.184-.118-.286-.102-.105.004-.203.05-.275.128L6.675 6.182l-.367-.39c-.073-.076-.171-.12-.277-.123-.104.006-.208.036-.285.108-.077.073-.121.172-.124.278-.003.106.035.206.109.284l.66.7zM6.391 11.456c.076.08.181.125.292.125.11 0 .216-.048.292-.13l1.633-1.788c.146-.163.134-.415-.027-.561-.078-.073-.184-.121-.286-.104-.105.005-.203.05-.275.129l-1.345 1.472-.367-.39c-.15-.158-.4-.166-.562-.014-.077.072-.121.17-.124.277-.003.106.035.207.109.284l.66.7z" transform="translate(-244 -222) translate(244 222)"/>
            </g>
        </g>
    </g>
</svg>
