<svg xmlns="http://www.w3.org/2000/svg" xmlns:xlink="http://www.w3.org/1999/xlink" width="21" height="23" viewBox="0 0 21 23">
    <defs>
        <path id="cjpl3gtxza" d="M0 0.659L20.143 0.659 20.143 23.1 0 23.1z"/>
    </defs>
    <g fill="none" fill-rule="evenodd">
        <g>
            <g>
                <path fill="#EFD82B" d="M19.58 1.593v3.664s-3.08-.118-3.86-3.43l3.86-.234zM2.154 21.067s.117-1.815 3.587-1.815h13.565s-1.13 2.34 0 3.43l-16.06.157s-1.208-.268-1.092-1.772" transform="translate(-31 -838) translate(31 837)"/>
                <path fill="#FFF" d="M9.844 10.417C8.576 10.412 7.56 9.384 7.57 8.114c.008-1.261 1.026-2.28 2.278-2.284 1.27-.004 2.32 1.048 2.305 2.311-.013 1.275-1.033 2.279-2.308 2.276" transform="translate(-31 -838) translate(31 837)"/>
                <path fill="#1864EA" d="M12.128 12.054c0-.24-.087-.437-.26-.59-.175-.153-.46-.287-.856-.407v1.924c.155-.016.302-.046.438-.092.135-.046.254-.108.353-.187.102-.077.182-.17.239-.279.057-.109.086-.232.086-.37zM10.13 7.955c-.337.024-.59.109-.762.256-.172.146-.258.345-.258.597 0 .217.087.39.264.52.175.131.427.243.756.339V7.955zm3.25 4.007c0 .32-.057.603-.174.848-.116.244-.28.45-.487.621-.208.17-.459.3-.749.394-.293.093-.612.152-.96.175v1.162h-.88V14.01c-.322-.018-.607-.067-.86-.145-.251-.079-.476-.179-.675-.298-.199-.121-.37-.257-.515-.41-.145-.153-.27-.313-.378-.48l.985-.636c.064.099.144.2.237.301.094.101.2.196.32.283.12.087.255.164.402.226.146.064.307.101.484.117v-2.123c-.382-.091-.715-.192-1-.3-.284-.11-.52-.24-.709-.39-.19-.151-.33-.33-.424-.54-.093-.21-.14-.46-.14-.751 0-.279.05-.53.149-.757.098-.228.245-.427.437-.594.193-.167.43-.303.713-.406.282-.103.607-.166.974-.189v-.607h.88v.607c.29.019.552.064.788.138.234.072.444.164.632.277.187.112.353.244.495.396.144.15.267.312.37.483l-.95.63c-.07-.103-.147-.204-.233-.3-.085-.1-.183-.186-.292-.267-.109-.08-.23-.147-.363-.2-.133-.053-.283-.091-.446-.109V9.89c.339.085.654.177.944.28.29.104.541.233.752.39.213.156.377.347.496.572.119.224.178.503.178.83z" transform="translate(-31 -838) translate(31 837)"/>
                <g transform="translate(-31 -838) translate(31 837) translate(0 .39)">
                    <mask id="9eleffvqnb" fill="#fff">
                        <use xlink:href="#cjpl3gtxza"/>
                    </mask>
                    <path fill="#1864EA" d="M19.112 18.243h-2.674l.024-.28c.083-.985 1.293-2.207 2.352-2.378l.298-.047v2.705zm-.582 3.509l.07.298-.37.022c-.06.004-.118.008-.176.008l-14.005.001c-.833 0-1.449-.535-1.5-1.3-.028-.396.104-.77.367-1.055.27-.29.646-.45 1.057-.452.858-.005 1.717-.003 2.578-.002h12.05l-.066.311c-.23 1.065-.23 1.227-.005 2.169zM2.56 2.565c.042-.464.441-.844.927-.884.086-.007.172-.006.26-.006H15.299l.047.2c.455 1.95 1.621 3.12 3.564 3.574l.198.048v8.958l-.208.041c-.916.179-1.699.586-2.323 1.21-.636.638-1.032 1.404-1.212 2.342l-.041.21-10.852-.004c-.54-.005-1.056-.01-1.538.242l-.377.195v-2.48l.475.002c.168.001.332.001.497-.002.32-.004.548-.22.546-.512-.002-.285-.229-.497-.537-.502-.159-.004-.317-.002-.48-.003l-.499.001v-2.808h.744c.768-.001.771-.366.772-.504.001-.142-.035-.25-.114-.328-.119-.12-.343-.184-.644-.184h-.753V8.56h.493c.166.002.328.003.49-.002.307-.006.53-.22.528-.509 0-.286-.227-.499-.534-.504-.159-.002-.318-.002-.482 0h-.499v-2.81h.478c.166 0 .33.001.493-.002.32-.005.547-.22.544-.513-.003-.286-.23-.496-.54-.501-.16-.002-.32-.002-.484-.001l-.497.001-.003-.531c-.006-.214-.009-.42.01-.624zm16.551-.882v2.67l-.274-.017c-.988-.062-2.191-1.248-2.383-2.352l-.054-.301h2.711zm.84 17.496c.134-.157.192-.322.192-.533l-.002-17.403c0-.393-.194-.584-.593-.584h-3.185L3.627.66c-1.209.001-2.092.885-2.098 2.102v.958l-.497-.001c-.17 0-.335-.001-.496.002-.309.005-.534.216-.536.502-.003.294.227.51.545.513.163.003.326.001.49.001h.485v2.808H.553C.228 7.55 0 7.758 0 8.051c0 .292.231.506.551.51.161.004.322.002.482.002h.478v2.808H.69c-.258 0-.455.061-.57.176-.08.08-.12.193-.119.334.001.416.38.505.697.507h.82v2.809h-.493c-.165-.002-.326-.003-.483 0-.315.005-.538.21-.54.5-.005.292.223.51.541.514.163.002.327.003.496.002l.233-.001h.257l.001 4.388c0 1.446 1.046 2.496 2.486 2.497l15.514.003c.374 0 .496-.154.565-.305.066-.143.102-.328-.133-.605-.78-.916-.783-2.097-.01-3.01z" mask="url(#9eleffvqnb)"/>
                </g>
            </g>
        </g>
    </g>
</svg>
