<svg xmlns="http://www.w3.org/2000/svg" xmlns:xlink="http://www.w3.org/1999/xlink" width="18" height="18" viewBox="0 0 18 18">
    <defs>
        <linearGradient id="w7qae6vxxa" x1="13.265%" x2="86.735%" y1="67.6%" y2="72.286%">
            <stop offset="0%" stop-color="#C7DCF6"/>
            <stop offset="100%" stop-color="#F1F1F1"/>
        </linearGradient>
        <path id="xxrxy1l13b" d="M0 0.404L17.481 0.404 17.481 17 0 17z"/>
    </defs>
    <g fill="none" fill-rule="evenodd">
        <g>
            <g>
                <g transform="translate(-100 -224) translate(100 224) translate(0 .596)">
                    <path fill="url(#w7qae6vxxa)" d="M11 9.404h4c1.105 0 2 .896 2 2v3c0 1.105-.895 2-2 2h-4v-7z"/>
                    <mask id="fmrpwvmt2c" fill="#fff">
                        <use xlink:href="#xxrxy1l13b"/>
                    </mask>
                    <path fill="#034BD9" d="M6.466 9.558c.103-.107.155-.247.15-.404-.005-.349-.283-.582-.687-.582h-4.74v-.757c-.001-.752-.002-1.503 0-2.253.005-.712.523-1.23 1.233-1.23 4.213-.002 8.424-.002 12.637 0 .71.001 1.227.52 1.23 1.231.004.716.003 1.432.002 2.16v.848h-1.613c-1.048-.004-2.09 0-3.132.001-.265 0-.492.115-.607.306-.102.17-.104.373-.006.56.114.22.31.326.604.326l4.754-.002v4.72c-.001.833-.5 1.33-1.334 1.33H2.52c-.832 0-1.33-.499-1.331-1.333V9.762h4.558l.058.001h.12c.229-.004.415-.074.54-.205zm.248-6.43c.167-.789 1.05-1.478 1.982-1.514h.073c.903 0 1.77.665 1.995 1.514h-4.05zm10.763 2.514c0-.222-.017-.41-.053-.578-.247-1.163-1.21-1.918-2.452-1.924-.975-.006-1.946-.003-2.92.001l-.066-.006c-.001-.002-.012-.014-.022-.068-.3-1.533-1.65-2.654-3.21-2.663h-.021C7.182.404 5.832 1.51 5.52 3.04c-.022.102-.025.105-.14.102-.935-.006-1.871-.006-2.807 0-.207.002-.451.011-.686.063C.725 3.464.002 4.414 0 5.684c-.002 2.924-.001 5.848.002 8.77 0 .174.006.403.053.622.244 1.166 1.207 1.92 2.453 1.921C3.987 17 5.463 17 6.944 17l1.773-.002 1.876.002h1.876c.834 0 1.668 0 2.5-.003 1.475-.002 2.505-1.029 2.508-2.497.007-2.707.004-5.414 0-8.12v-.738z" mask="url(#fmrpwvmt2c)"/>
                </g>
                <path fill="#034BD9" d="M9.348 9.771v.002c-.004.162-.07.318-.19.434-.116.113-.264.175-.42.175h-.01c-.157-.003-.308-.07-.42-.184-.116-.123-.178-.28-.176-.444.008-.335.286-.614.61-.614h.01c.158.005.306.07.42.186.116.122.178.281.176.445m-.605 1.332h.009c.736-.003 1.335-.602 1.335-1.338 0-.359-.14-.696-.393-.95-.256-.255-.595-.394-.954-.394h-.002c-.362 0-.7.142-.952.395-.255.254-.394.593-.393.952 0 .355.14.69.394.941.257.255.595.395.956.395" transform="translate(-100 -224) translate(100 224)"/>
            </g>
        </g>
    </g>
</svg>
