<svg xmlns="http://www.w3.org/2000/svg" xmlns:xlink="http://www.w3.org/1999/xlink" width="23" height="24" viewBox="0 0 23 24">
    <defs>
        <path id="dx4b8r15na" d="M0 0.216L22.783 0.216 22.783 23 0 23z"/>
    </defs>
    <g fill="none" fill-rule="evenodd">
        <g>
            <g>
                <path fill="#EFD82B" d="M16.4 12.595c0-2.762-2.239-5-5-5s-5 2.238-5 5c0 2.761 2.239 5 5 5s5-2.239 5-5" transform="translate(-31 -946) translate(31 946)"/>
                <g transform="translate(-31 -946) translate(31 946) translate(0 .994)">
                    <mask id="cvabr24vnb" fill="#fff">
                        <use xlink:href="#dx4b8r15na"/>
                    </mask>
                    <path fill="#1864EA" d="M22.322 8.394c-.05-.242-.244-.41-.498-.43-.207-.018-.372.051-.485.188-.127.156-.16.381-.094.62.408 1.433.505 2.886.29 4.32-.31 2.054-1.136 3.827-2.457 5.266-2.636 2.879-5.917 3.978-9.742 3.266-1.965-.366-3.684-1.283-5.106-2.727-2.594-2.63-3.552-5.785-2.847-9.376.514-2.62 1.938-4.76 4.23-6.364 1.393-.975 2.99-1.564 4.75-1.749 1.287-.134 2.602-.016 3.91.355.346.096.652-.056.745-.373.045-.149.03-.301-.042-.43-.08-.14-.222-.244-.4-.291-.442-.118-.84-.207-1.215-.275-.287-.052-.576-.09-.864-.126l-.398-.052-1.42.001c-.14.022-.303.044-.467.064-.334.044-.68.09-1.015.154-3.626.696-6.594 3.042-8.144 6.44-1.555 3.409-1.38 7.205.479 10.414 2.739 4.726 8.414 6.867 13.5 5.09 4.142-1.45 6.692-4.417 7.577-8.82.056-.28.091-.57.125-.852.017-.132.031-.264.05-.396v-1.43l-.16-.87c-.096-.54-.191-1.08-.302-1.617" mask="url(#cvabr24vnb)"/>
                </g>
                <path fill="#1864EA" d="M20.317 6.337c-.296.3-.582.588-.872.876-.046.047-.117.076-.21.087l-2.575.258-.04.003-.164-.066-.022-.124.046-.485c.032-.348.065-.697.1-1.046.034-.344.07-.688.11-1.031.015-.125.048-.211.105-.27.298-.305.6-.606.915-.923l.556-.555.139 1.703c.007.103.016.204.03.306.03.201.138.45.482.487.374.04.752.071 1.145.103l.857.072-.602.605zm1.728-1.67c-.471-.022-.946-.063-1.406-.102-.272-.023-.543-.046-.814-.066-.206-.015-.314-.121-.33-.328-.018-.274-.042-.549-.065-.824-.04-.456-.08-.93-.102-1.396-.018-.382-.148-.606-.435-.739h-.278c-.042.032-.087.062-.13.093-.116.084-.23.164-.323.257-.372.366-.741.735-1.11 1.104-.395.396-.791.792-1.19 1.184-.18.177-.27.367-.295.615-.042.456-.087.913-.133 1.368-.062.618-.123 1.238-.18 1.858-.015.187-.086.336-.229.48-1.122 1.117-2.242 2.236-3.36 3.355l-.558.56c-.074.072-.12.115-.159.166-.143.184-.159.437-.039.632.096.155.274.324.545.269.14-.032.306-.124.419-.235.831-.822 1.658-1.648 2.484-2.473.496-.497.992-.992 1.49-1.486.054-.055.2-.184.366-.202 1.09-.117 2.182-.225 3.273-.325.28-.026.489-.123.678-.314.398-.409.802-.813 1.208-1.216.35-.35.7-.699 1.046-1.051.098-.1.183-.218.27-.342.032-.043.064-.085.095-.13v-.276c-.135-.287-.36-.42-.738-.436z" transform="translate(-31 -946) translate(31 946)"/>
                <path fill="#1864EA" d="M13.725 6.019c.135-.132.187-.326.14-.528-.054-.236-.208-.374-.5-.449-1.183-.3-2.383-.328-3.567-.082-3.648.754-6.196 3.965-6.2 7.81.005.054.009.123.014.2.012.198.029.467.065.728.294 2.08 1.392 3.915 3.09 5.168 1.704 1.255 3.782 1.763 5.867 1.429 2.167-.349 4.099-1.607 5.302-3.452 1.198-1.838 1.568-4.106 1.014-6.218-.053-.202-.16-.36-.308-.446-.124-.072-.269-.088-.426-.048-.316.086-.465.395-.37.769.27 1.067.286 2.133.048 3.169-.804 3.506-4.298 5.781-7.806 5.06-3.449-.706-5.722-3.888-5.289-7.404.326-2.652 2.373-4.95 4.976-5.589 1.102-.268 2.23-.264 3.346.02.23.06.456.01.604-.137" transform="translate(-31 -946) translate(31 946)"/>
                <path fill="#1864EA" d="M12.365 9.065c.018-.145-.025-.294-.121-.408-.1-.12-.243-.193-.406-.205-.169-.013-.325-.017-.472-.017-.234 0-.441.014-.636.046-2.127.334-3.665 2.275-3.496 4.42.165 2.154 1.986 3.86 4.144 3.891l.266-.03c.202-.023.405-.045.606-.083 1.87-.347 3.363-2.172 3.324-4.07-.006-.325-.246-.576-.557-.583-.328-.018-.566.235-.583.576-.007.155-.018.31-.04.463-.18 1.216-1.125 2.22-2.356 2.497-1.191.269-2.5-.266-3.176-1.306-.7-1.077-.667-2.422.08-3.428.68-.915 1.602-1.344 2.775-1.256.342.026.608-.179.648-.507" transform="translate(-31 -946) translate(31 946)"/>
            </g>
        </g>
    </g>
</svg>
