<svg xmlns="http://www.w3.org/2000/svg" xmlns:xlink="http://www.w3.org/1999/xlink" width="28" height="22" viewBox="0 0 28 22">
    <defs>
        <path id="d7pxc7w2ma" d="M0.024 0.75L10.024 0.75 10.024 10.75 0.024 10.75z"/>
        <path id="2i41kkoqqc" d="M0.5 0L24.724 0 24.724 1 0.5 1z"/>
    </defs>
    <g fill="none" fill-rule="evenodd">
        <g>
            <g>
                <path fill="#FFF" d="M18.99 6.146c0-3.043-2.466-5.511-5.51-5.511-3.043 0-5.51 2.468-5.51 5.51 0 3.043 2.467 5.511 5.51 5.511 3.044 0 5.51-2.468 5.51-5.51" transform="translate(-29 -1639) translate(29 1639)"/>
                <path fill="#EFD82B" d="M16.858 7.64c0-2.004-1.625-3.63-3.629-3.63S9.6 5.637 9.6 7.64s1.625 3.628 3.629 3.628 3.629-1.624 3.629-3.628" transform="translate(-29 -1639) translate(29 1639)"/>
                <path fill="#FFF" d="M4.158 19.041l18.628-.085s-1.616-7.824-9.34-7.41c-5.776.309-9.288 7.495-9.288 7.495" transform="translate(-29 -1639) translate(29 1639)"/>
                <path fill="#1864EA" d="M8.288 5.992c0-2.782 2.238-5.045 4.989-5.045 2.75 0 4.989 2.263 4.989 5.045s-2.238 5.045-4.99 5.045c-2.75 0-4.988-2.263-4.988-5.045m8.79 5.76l-.987-.384.833-.66c1.44-1.149 2.266-2.867 2.266-4.716C19.19 2.688 16.538 0 13.277 0c-3.26 0-5.913 2.688-5.913 5.992 0 1.85.826 3.568 2.267 4.715l.829.662-.985.383c-1.361.532-2.582 1.341-3.63 2.402-1.892 1.915-2.978 4.443-3.074 7.144h.925c.202-5.159 4.45-9.314 9.58-9.314 5.132 0 9.379 4.155 9.58 9.314h.927c-.096-2.7-1.182-5.228-3.074-7.144-1.05-1.06-2.271-1.87-3.63-2.403" transform="translate(-29 -1639) translate(29 1639)"/>
                <path fill="#FFF" d="M26.457 14.434c0-2.478-2.01-4.486-4.487-4.486-2.48 0-4.488 2.008-4.488 4.486 0 2.479 2.009 4.487 4.488 4.487 2.477 0 4.487-2.008 4.487-4.486" transform="translate(-29 -1639) translate(29 1639)"/>
                <g transform="translate(-29 -1639) translate(29 1639) translate(17 8.617)">
                    <mask id="213zvkkp1b" fill="#fff">
                        <use xlink:href="#d7pxc7w2ma"/>
                    </mask>
                    <path fill="#1864EA" stroke="#1864EA" stroke-width=".2" d="M5.023 1.584C2.714 1.584.858 3.441.858 5.75c0 2.31 1.856 4.166 4.165 4.166 2.31 0 4.166-1.857 4.166-4.166S7.333 1.584 5.023 1.584m0 8.834C2.44 10.418.356 8.335.356 5.75S2.44 1.082 5.023 1.082c2.585 0 4.668 2.083 4.668 4.668s-2.083 4.668-4.668 4.668" mask="url(#213zvkkp1b)"/>
                </g>
                <path stroke="#1864EA" stroke-linecap="round" stroke-linejoin="round" stroke-width=".95" d="M19.906 14.715L21.165 16.022 24.505 12.973" transform="translate(-29 -1639) translate(29 1639)"/>
                <g transform="translate(-29 -1639) translate(29 1639) translate(0 20.617)"/>
            </g>
        </g>
    </g>
</svg>
