<svg xmlns="http://www.w3.org/2000/svg" width="12" height="12" viewBox="0 0 12 12">
    <g fill="none" fill-rule="evenodd">
        <g fill="#034BD9" fill-rule="nonzero">
            <g>
                <g>
                    <path d="M6 0C2.692 0 0 2.692 0 6s2.692 6 6 6 6-2.692 6-6-2.692-6-6-6zm0 10.91c-2.707 0-4.91-2.203-4.91-4.91 0-2.707 2.203-4.91 4.91-4.91 2.707 0 4.91 2.203 4.91 4.91 0 2.707-2.203 4.91-4.91 4.91z" transform="translate(-298 -173) translate(16 155) translate(282 18)"/>
                    <path d="M6 2.545c-.401 0-.727.327-.727.728 0 .4.326.727.727.727.4 0 .727-.326.727-.727 0-.401-.326-.728-.727-.728zM6 5.09c-.301 0-.545.245-.545.546V8.91c0 .301.244.546.545.546.301 0 .545-.245.545-.546V5.636c0-.3-.244-.545-.545-.545z" transform="translate(-298 -173) translate(16 155) translate(282 18)"/>
                </g>
            </g>
        </g>
    </g>
</svg>
