<svg xmlns="http://www.w3.org/2000/svg" xmlns:xlink="http://www.w3.org/1999/xlink" width="29" height="20" viewBox="0 0 29 20">
    <defs>
        <path id="gw7drd2gaa" d="M0 0.598L28.496 0.598 28.496 20.3 0 20.3z"/>
    </defs>
    <g fill="none" fill-rule="evenodd">
        <g>
            <g>
                <path fill="#EFD82B" d="M8.748 2.805l3.285 7.985s.624-3.999.495-4.814c-.128-.815-1.084-2.91-1.592-3.17-.51-.26-2.188 0-2.188 0M10.263 14.175c0 2.082-1.687 3.77-3.77 3.77-2.082 0-3.77-1.688-3.77-3.77 0-2.083 1.688-3.77 3.77-3.77 2.083 0 3.77 1.687 3.77 3.77M25.617 14.175c0 2.082-1.688 3.77-3.77 3.77s-3.77-1.688-3.77-3.77c0-2.083 1.688-3.77 3.77-3.77s3.77 1.687 3.77 3.77" transform="translate(-26 -684) translate(26 683)"/>
                <g transform="translate(-26 -684) translate(26 683) translate(0 .368)">
                    <mask id="kyyvbr4heb" fill="#fff">
                        <use xlink:href="#gw7drd2gaa"/>
                    </mask>
                    <path fill="#1864EA" d="M22.002 19.346c-3.054 0-5.539-2.485-5.539-5.54s2.485-5.54 5.54-5.54c3.054 0 5.54 2.485 5.54 5.54s-2.486 5.54-5.54 5.54zm-5.54-13.624c0-1.812 1.474-3.285 3.286-3.285 1.148 0 2.194.585 2.798 1.564.058.093 1.25 2.092 2.396 4.016-.884-.45-1.882-.704-2.94-.704-2.341 0-4.397 1.245-5.54 3.109v-4.7zm0-3.17c0-.552.449-1 1-1 .251 0 .486.092.665.254-.653.27-1.224.7-1.665 1.241v-.496zm-.953 9.034h-2.522 2.522zm-2.522.102h2.522v-4.77h-2.522v4.77zm-6.493 7.658c-3.056 0-5.54-2.485-5.54-5.54s2.484-5.54 5.54-5.54c3.055 0 5.54 2.485 5.54 5.54s-2.485 5.54-5.54 5.54zm5.54-16.299c-.442-.54-1.012-.97-1.665-1.241.181-.162.415-.254.665-.254.551 0 1 .448 1 1v.495zm15.796 7.897c-.195-.396-4.366-7.271-4.471-7.444-.78-1.263-2.13-2.017-3.611-2.017-.212 0-.42.016-.623.046v-.001c-.36-.582-.982-.93-1.663-.93-1.077 0-1.953.876-1.953 1.953v3.413h-2.522V2.55c0-1.077-.876-1.953-1.953-1.953-.68 0-1.3.347-1.663.931-.203-.03-.411-.046-.623-.046-1.482 0-2.832.754-3.61 2.018-.01.018-.044.071-.829 1.387-.134.226-.06.519.166.653.226.135.519.061.653-.165.646-1.083.803-1.345.822-1.375.604-.979 1.65-1.564 2.798-1.564 1.812 0 3.285 1.473 3.285 3.285v4.7C10.89 8.558 8.835 7.313 6.494 7.313c-1.057 0-2.057.253-2.94.704l.707-1.185c.134-.227.061-.52-.165-.655-.226-.134-.52-.06-.655.165-1.013 1.7-2.608 4.25-2.809 4.671C.227 11.86 0 12.807 0 13.806c0 3.58 2.913 6.494 6.494 6.494 3.58 0 6.493-2.913 6.493-6.494V12.54h2.522v1.267c0 3.58 2.913 6.494 6.493 6.494 3.58 0 6.494-2.913 6.494-6.494 0-1.026-.24-1.998-.666-2.862z" mask="url(#kyyvbr4heb)"/>
                </g>
                <path fill="#1864EA" d="M26.183 12.672c-.089-.247-.362-.377-.61-.287-.247.088-.377.362-.287.61.136.377.204.774.204 1.18 0 1.923-1.564 3.488-3.488 3.488-1.923 0-3.488-1.565-3.488-3.489 0-1.922 1.565-3.487 3.488-3.487.965 0 1.896.406 2.554 1.112.18.193.482.204.675.024.193-.178.203-.48.024-.673-.838-.9-2.023-1.417-3.253-1.417-2.449 0-4.441 1.993-4.441 4.441 0 2.45 1.992 4.442 4.441 4.442 2.45 0 4.442-1.992 4.442-4.442 0-.515-.088-1.02-.26-1.502M6.494 17.663c-1.924 0-3.488-1.565-3.488-3.488 0-1.924 1.564-3.488 3.488-3.488 1.923 0 3.487 1.564 3.487 3.488 0 1.923-1.564 3.488-3.487 3.488m0-7.93c-2.45 0-4.442 1.992-4.442 4.442s1.992 4.442 4.442 4.442 4.441-1.992 4.441-4.442-1.992-4.442-4.441-4.442" transform="translate(-26 -684) translate(26 683)"/>
            </g>
        </g>
    </g>
</svg>
