<svg xmlns="http://www.w3.org/2000/svg" width="98" height="98" viewBox="0 0 98 98">
    <g fill="none" fill-rule="evenodd">
        <g fill-rule="nonzero">
            <g transform="translate(-125 -210) translate(125 210)">
                <circle cx="49" cy="49" r="49" fill="#F7DA31"/>
                <path fill="#000" d="M67.637 75.441c-5.254 3.568-11.253 5.37-17.998 5.37-9.035 0-16.707-3.185-23.07-9.538-6.344-6.354-9.526-14.054-9.526-23.101 0-8.993 3.182-16.657 9.527-23.01 6.344-6.353 14.034-9.539 23.07-9.539 8.98 0 16.634 3.186 22.978 9.54 6.345 6.352 9.526 14.034 9.526 23.009 0 6.754-1.781 12.76-5.363 18.022l7.963 7.973-9.217 9.157-7.89-7.883zm-.382-18.768c1.236-2.585 1.855-5.406 1.855-8.501 0-5.37-1.91-9.958-5.727-13.78-3.818-3.823-8.399-5.735-13.762-5.735-5.4 0-10.017 1.912-13.834 5.734-3.818 3.823-5.727 8.41-5.727 13.78 0 5.407 1.909 10.031 5.727 13.854 3.817 3.823 8.435 5.734 13.834 5.734 3.072 0 5.908-.619 8.49-1.857L46.876 54.671l9.217-9.157 11.162 11.16z"/>
            </g>
        </g>
    </g>
</svg>
