<svg xmlns="http://www.w3.org/2000/svg" width="80" height="50" viewBox="0 0 80 50">
    <g opacity=".742">
        <g fill="none" opacity=".506">
            <path fill="#FDBF27" d="M55.571 18h19C77.57 18 80 20.413 80 23.39v32.342c0 2.977-2.43 5.39-5.429 5.39h-6.785c-.75 0-1.357.604-1.357 1.348v6.18c0 1.2-1.462 1.801-2.317.953l-8.143-8.086c-.255-.253-.6-.395-.96-.395H28.43c-2.999 0-5.429-2.413-5.429-5.39V41.585L55.571 18z"/>
            <path fill="#F9F5F3" d="M51.572 0H5.429C2.43 0 0 2.413 0 5.39v32.342c0 2.977 2.43 5.39 5.428 5.39h6.786c.75 0 1.357.604 1.357 1.348v6.18c0 1.2 1.462 1.802 2.317.953l8.143-8.086c.254-.253.6-.395.96-.395h26.58c2.999 0 5.429-2.413 5.429-5.39V5.39C57 2.413 54.57 0 51.572 0z"/>
            <ellipse cx="39.91" cy="50.547" fill="#F9F5F3" rx="2.655" ry="2.661" transform="rotate(-80.792 39.91 50.547)"/>
            <g fill="#FDBF27">
                <path d="M9.491 31.086c.996-1.032.996-2.706 0-3.738-.996-1.033-2.61-1.033-3.606 0-.996 1.032-.996 2.706 0 3.738.996 1.033 2.61 1.033 3.606 0zM7.688 21.286c-1.408 0-2.55-1.184-2.55-2.644v-2.644c0-2.422 1.381-4.575 3.518-5.485 1.019-.434 1.652-1.495 1.576-2.64-.085-1.283-1.12-2.357-2.357-2.445-.718-.05-1.404.198-1.926.703-.523.506-.81 1.193-.81 1.934 0 1.46-1.142 2.644-2.55 2.644-1.41 0-2.55-1.183-2.55-2.644 0-2.19.885-4.304 2.43-5.8C4.013.771 6.11 0 8.226.152c3.783.27 6.833 3.433 7.094 7.356.227 3.422-1.672 6.596-4.727 7.897-.212.09-.355.328-.355.593v2.644c0 1.46-1.141 2.644-2.55 2.644z" transform="translate(22 5)"/>
            </g>
            <ellipse cx="63.877" cy="50.583" fill="#F9F5F3" rx="2.655" ry="2.661" transform="rotate(-76.7 63.877 50.583)"/>
            <ellipse cx="51.884" cy="50.548" fill="#F9F5F3" rx="2.655" ry="2.661" transform="rotate(-80.792 51.884 50.548)"/>
            <g fill="#F9EAE0">
                <path d="M6.606 43.404L.135 49.882v.618c0 1.194 1.442 1.793 2.286.948l8.035-8.044c.251-.251.592-.392.947-.392h-3.85c-.356 0-.696.141-.947.392zM37.632.113h-3.85c2.958 0 5.356 2.4 5.356 5.362V37.65c0 2.961-2.398 5.362-5.356 5.362h3.85c2.958 0 5.356-2.401 5.356-5.362V5.475c0-2.961-2.398-5.362-5.356-5.362z" transform="translate(14)"/>
            </g>
            <path fill="#F0B21A" d="M74.34 18.108h-3.978c3.056 0 5.535 2.408 5.535 5.378v32.272c0 2.97-2.479 5.379-5.535 5.379h3.978c3.057 0 5.535-2.408 5.535-5.379V23.486c0-2.97-2.478-5.378-5.535-5.378z"/>
        </g>
    </g>
</svg>
