<svg xmlns="http://www.w3.org/2000/svg" xmlns:xlink="http://www.w3.org/1999/xlink" width="23" height="24" viewBox="0 0 23 24">
    <defs>
        <path id="2jgv82pqja" d="M0 0.778L22.195 0.778 22.195 23 0 23z"/>
    </defs>
    <g fill="none" fill-rule="evenodd">
        <g>
            <g>
                <path fill="#EFD82B" d="M17.934 16.904l-2.61 2.074 3.152 3.243s1.733.993 2.72-.195c.987-1.186.174-3.158.174-3.158l-3.436-1.964z" transform="translate(-32 -238) translate(32 238)"/>
                <g transform="translate(-32 -238) translate(32 238) translate(0 .222)">
                    <mask id="vkouppfp4b" fill="#fff">
                        <use xlink:href="#2jgv82pqja"/>
                    </mask>
                    <path fill="#1864EA" d="M20.756 21.561c-.618.618-1.623.57-2.174-.058l-3.847-4.724 1.299-1.3 4.665 3.908c.67.621.635 1.596.057 2.174m-6.134-4.748c.26-.208.509-.43.746-.667m-12.026-.722c-3.123-3.123-3.124-8.179 0-11.303 3.124-3.124 8.18-3.125 11.305 0 3.143 3.142 3.137 8.195.014 11.318-3.125 3.126-8.182 3.122-11.32-.015m18.028 3.222c-.646-.59-3.826-3.216-4.754-4.062 2.217-3.518 1.736-8.173-1.261-11.17C11.839-.1 6.15-.1 2.636 3.414c-3.514 3.514-3.515 9.203 0 12.717 2.995 2.995 7.644 3.477 11.16 1.27.008.007 4.13 4.862 4.137 4.868.975.975 2.553.975 3.53-.002 1.037-1.036.94-2.702-.094-3.62" mask="url(#vkouppfp4b)"/>
                </g>
                <path fill="#1864EA" d="M13.646 6.197c-.15-.183-.42-.208-.604-.058-.183.15-.208.42-.057.603 1.688 2.054 1.543 5.023-.338 6.905-2.008 2.008-5.268 2.008-7.276 0-2.007-2.007-2.007-5.268 0-7.276 1.299-1.298 3.21-1.805 4.989-1.326.229.062.464-.073.525-.3.062-.23-.073-.465-.301-.527-2.074-.56-4.305.032-5.82 1.547-2.341 2.343-2.341 6.146 0 8.488 2.343 2.343 6.147 2.343 8.488 0 2.199-2.198 2.336-5.695.394-8.056" transform="translate(-32 -238) translate(32 238)"/>
            </g>
        </g>
    </g>
</svg>
