<svg xmlns="http://www.w3.org/2000/svg" width="20" height="20" viewBox="0 0 20 20">
    <g fill="none" fill-rule="evenodd">
        <g fill="#9C9C9C" fill-rule="nonzero" stroke="#9C9C9C" stroke-width=".5">
            <g>
                <path d="M17.073 7H15.39c-.27 0-.493-.149-.597-.399-.104-.25-.051-.513.14-.705l1.19-1.19c.176-.175.272-.408.272-.655 0-.248-.096-.48-.271-.656l-1.518-1.518c-.35-.35-.96-.35-1.311 0l-1.19 1.19c-.192.192-.456.245-.705.141-.25-.104-.399-.327-.399-.597V.927C11 .416 10.584 0 10.073 0H7.927C7.416 0 7 .416 7 .927V2.61c0 .27-.149.493-.399.597-.25.104-.513.05-.705-.14l-1.19-1.19c-.35-.351-.961-.35-1.311 0L1.877 3.394c-.175.175-.271.408-.271.656 0 .247.096.48.271.655l1.191 1.19c.191.192.243.455.14.705-.103.25-.327.399-.597.399H.927C.416 7 0 7.416 0 7.927v2.146c0 .511.416.927.927.927H2.61c.27 0 .493.149.597.399.104.25.051.513-.14.705l-1.19 1.19c-.176.175-.272.408-.272.655 0 .248.096.48.271.656l1.518 1.518c.35.35.96.35 1.311 0l1.19-1.191c.192-.191.455-.244.705-.14.25.104.399.327.399.597v1.684c0 .511.416.927.927.927h2.146c.511 0 .927-.416.927-.927V15.39c0-.27.149-.493.399-.597.25-.104.513-.051.704.14l1.19 1.19c.351.351.962.35 1.312 0l1.517-1.517c.175-.175.272-.408.272-.656 0-.247-.097-.48-.272-.655l-1.19-1.19c-.191-.192-.244-.455-.14-.705.103-.25.327-.399.597-.399h1.684c.511 0 .927-.416.927-.927V7.927c0-.511-.416-.927-.927-.927zm.26 3.073c0 .144-.116.26-.26.26H15.39c-.541 0-1.006.311-1.213.811-.207.5-.098 1.049.285 1.431l1.19 1.19c.102.102.102.267 0 .369l-1.517 1.517c-.102.102-.267.102-.368 0l-1.19-1.19c-.384-.383-.932-.492-1.432-.285-.5.207-.81.672-.81 1.213v1.684c0 .144-.117.26-.26.26H7.926c-.144 0-.26-.116-.26-.26V15.39c0-.541-.311-1.006-.811-1.213-.168-.07-.34-.104-.511-.104-.338 0-.666.134-.92.388l-1.19 1.191c-.103.102-.268.101-.369 0L2.35 14.133c-.102-.101-.102-.266 0-.368l1.19-1.19c.383-.383.492-.931.285-1.431-.207-.5-.672-.81-1.213-.81H.927c-.144 0-.26-.117-.26-.26V7.926c0-.144.116-.26.26-.26H2.61c.541 0 1.006-.311 1.213-.811.207-.5.098-1.049-.285-1.431l-1.19-1.19c-.102-.102-.102-.267 0-.369L3.866 2.35c.102-.102.267-.102.368 0l1.19 1.19c.383.382.931.492 1.432.285.5-.207.81-.672.81-1.213V.927c0-.144.117-.26.26-.26h2.147c.144 0 .26.116.26.26V2.61c0 .541.311 1.006.811 1.213.5.207 1.049.098 1.431-.285l1.19-1.19c.103-.102.268-.102.369 0l1.517 1.518c.102.101.102.266 0 .368l-1.19 1.19c-.383.383-.492.931-.285 1.431.207.5.672.811 1.213.811h1.684c.144 0 .26.116.26.26v2.146z" transform="translate(-35 -260) translate(36 261)"/>
                <path d="M9 6C7.346 6 6 7.346 6 9s1.346 3 3 3 3-1.346 3-3-1.346-3-3-3zm0 5.333c-1.286 0-2.333-1.047-2.333-2.333 0-1.286 1.047-2.333 2.333-2.333 1.286 0 2.333 1.047 2.333 2.333 0 1.286-1.047 2.333-2.333 2.333z" transform="translate(-35 -260) translate(36 261)"/>
            </g>
        </g>
    </g>
</svg>
