<svg xmlns="http://www.w3.org/2000/svg" xmlns:xlink="http://www.w3.org/1999/xlink" width="360" height="640" viewBox="0 0 360 640">
    <defs>
        <path id="t29aqpp3qa" d="M0 0H360V640H0z"/>
    </defs>
    <g fill="none" fill-rule="evenodd">
        <mask id="zqnxxzpi6b" fill="#fff">
            <use xlink:href="#t29aqpp3qa"/>
        </mask>
        <use fill="#EFD82B" xlink:href="#t29aqpp3qa"/>
        <path fill="#FDBF27" fill-rule="nonzero" d="M430.227 158.813c-36.784 24.98-78.788 37.598-126.01 37.598-63.259 0-116.972-22.304-161.521-66.785C98.274 85.144 76 31.232 76-32.113c0-62.962 22.274-116.62 66.696-161.101C187.118-237.696 240.958-260 304.218-260c62.877 0 116.463 22.304 160.885 66.786 44.421 44.481 66.696 98.266 66.696 161.101 0 47.285-12.474 89.345-37.549 126.18L550 149.89 485.468 214l-55.24-55.187zm-1.19-130.214C437.678 10.552 442-9.148 442-30.754c0-37.493-13.345-69.521-40.035-96.211-26.69-26.69-58.718-40.035-96.21-40.035-37.748 0-70.03 13.345-96.72 40.035C182.345-100.275 169-68.247 169-30.755c0 37.748 13.345 70.03 40.035 96.72 26.69 26.69 58.972 40.035 96.72 40.035 21.478 0 41.305-4.321 59.353-12.964L286.563 14.62 351-49.311l78.036 77.91z" mask="url(#zqnxxzpi6b)" opacity=".255"/>
        <path fill="#FDBF27" fill-rule="nonzero" d="M193.227 882.813c-36.784 24.98-78.788 37.598-126.01 37.598-63.259 0-116.972-22.304-161.521-66.785C-138.726 809.144-161 755.232-161 691.887c0-62.962 22.274-116.62 66.696-161.101C-49.882 486.304 3.958 464 67.218 464c62.877 0 116.463 22.304 160.885 66.786 44.421 44.481 66.696 98.266 66.696 161.101 0 47.285-12.474 89.345-37.549 126.18L313 873.89 248.468 938l-55.24-55.187zm-1.19-130.214C200.678 734.552 205 714.852 205 693.246c0-37.493-13.345-69.521-40.035-96.211-26.69-26.69-58.718-40.035-96.21-40.035-37.748 0-70.03 13.345-96.72 40.035C-54.655 623.725-68 655.753-68 693.245c0 37.748 13.345 70.03 40.035 96.72C-1.275 816.655 31.007 830 68.755 830c21.478 0 41.305-4.321 59.353-12.964L49.563 738.62 114 674.689l78.036 77.91z" mask="url(#zqnxxzpi6b)" opacity=".219" transform="matrix(-1 0 0 1 152 0)"/>
    </g>
</svg>
