<svg xmlns="http://www.w3.org/2000/svg" width="17" height="15" viewBox="0 0 17 15">
    <g fill="none" fill-rule="evenodd" opacity=".673">
        <g fill-rule="nonzero">
            <g>
                <path fill="#CDCDCD" d="M16.599 5.419l-5.506-.473-2.188-4.7c-.153-.328-.657-.328-.81 0l-2.188 4.7-5.506.473c-.385.033-.541.477-.25.713L4.305 9.51 3.09 14.501c-.085.35.323.624.656.44L8.5 12.33l4.755 2.613c.333.183.74-.092.656-.441l-1.216-4.992 4.154-3.377c.291-.236.135-.68-.25-.713z" transform="translate(-69 -265) translate(69 265)"/>
                <path fill="#B9B9B9" d="M8.917.247c-.153-.33-.658-.33-.812 0l-2.19 4.7-5.513.472c-.386.033-.542.477-.251.713L4.31 9.51l-1.218 4.992c-.085.35.324.624.657.44l1.063-.582C4.96 8.764 7.773 4.824 10 2.57L8.917.247z" transform="translate(-69 -265) translate(69 265)"/>
            </g>
        </g>
    </g>
</svg>
