<svg xmlns="http://www.w3.org/2000/svg" xmlns:xlink="http://www.w3.org/1999/xlink" width="276" height="106" viewBox="0 0 276 106">
    <defs>
        <path id="btelhs3r9a" d="M0 0H360V129H0z"/>
        <path id="dthfveuewc" d="M0 0L276 0 276 160 0 160z"/>
    </defs>
    <g fill="none" fill-rule="evenodd" opacity=".131">
        <g>
            <g transform="translate(-43 -158) translate(0 135)">
                <mask id="ct0020fqvb" fill="#fff">
                    <use xlink:href="#btelhs3r9a"/>
                </mask>
                <path fill="#5E5E5E" d="M257.153 97C243.798 97 233 107.871 233 121.202c0 3.195 2.608 5.798 5.796 5.798 3.179 0 5.786-2.603 5.786-5.798 0-6.951 5.685-12.647 12.622-12.647 3.188 0 5.796-2.613 5.796-5.808-.05-3.185-2.669-5.747-5.847-5.747" mask="url(#ct0020fqvb)"/>
                <g mask="url(#ct0020fqvb)">
                    <g transform="translate(43 23)">
                        <mask id="qqpmxgjlad" fill="#fff">
                            <use xlink:href="#dthfveuewc"/>
                        </mask>
                        <path fill="#5E5E5E" d="M214.524 140.385c-23.211 0-42-18.829-42-42.088s18.789-42.088 42-42.088c23.21 0 42 18.83 42 42.088 0 23.193-18.79 42.088-42 42.088m-76.464-47.87c-7.538 0-13.639-6.124-13.639-13.678 0-7.543 6.101-13.667 13.64-13.667 7.526 0 13.639 6.124 13.639 13.667 0 7.554-6.113 13.679-13.64 13.679m-76.474 47.869c-23.21 0-42-18.829-42-42.088s18.79-42.088 42-42.088c23.211 0 42 18.83 42 42.088.056 23.193-18.789 42.088-42 42.088m195.679-86.502c-1.525-1.473-3.172-2.89-4.874-4.253l-23.2-19.737c-8.942-6.357-19.586-10.378-31.136-11.175l1.249 1.252-14.092-14.177h-.122C181.188 2.215 175.927 0 170.202 0c-9.848 0-18.16 6.413-21 15.318-2.83-1.817-6.101-2.891-9.672-3.124-.563-.055-1.193-.055-1.757-.055-4.023 0-7.759 1.196-10.92 3.179-2.885-8.85-11.208-15.263-21-15.263-5.726 0-10.932 2.16-14.888 5.793h-.111L76.762 20.025 78 18.773c-11.54.798-22.239 4.874-31.125 11.176L23.664 49.686c-1.702 1.307-3.338 2.724-4.863 4.253C7.195 65.169 0 80.886 0 98.297 0 132.322 27.62 160 61.586 160c31.357 0 57.342-23.647 61.067-54.105 4.532 2.614 9.804 4.087 15.352 4.087 5.593 0 10.81-1.473 15.33-4.087 3.803 30.403 29.721 54.06 61.078 54.06 33.965 0 61.587-27.678 61.587-61.713.055-17.411-7.13-33.128-18.735-44.359" mask="url(#qqpmxgjlad)"/>
                    </g>
                </g>
                <path fill="#5E5E5E" d="M102.153 97C88.798 97 78 107.871 78 121.202c0 3.195 2.608 5.798 5.786 5.798 3.189 0 5.796-2.603 5.796-5.798 0-6.951 5.685-12.647 12.622-12.647 3.178 0 5.796-2.613 5.796-5.808-.061-3.185-2.669-5.747-5.847-5.747" mask="url(#ct0020fqvb)"/>
                <path stroke="#737373" stroke-width="10" d="M154 122c0-28.17-22.828-51-50.995-51C74.84 71 52 93.83 52 122s22.839 51 51.005 51C131.172 173 154 150.17 154 122zM309 122c0-28.17-22.83-51-51-51s-51 22.83-51 51 22.83 51 51 51 51-22.83 51-51z" mask="url(#ct0020fqvb)"/>
            </g>
        </g>
    </g>
</svg>
