<svg xmlns="http://www.w3.org/2000/svg" xmlns:xlink="http://www.w3.org/1999/xlink" width="399" height="220" viewBox="0 0 399 220">
    <defs>
        <path id="qqzmy1icqa" d="M0 0L87 0 87 47 0 47z"/>
    </defs>
    <g fill="none" fill-rule="evenodd">
        <g>
            <g>
                <g>
                    <path fill="#1B1B25" d="M225 39c0 19.33-15.67 35-35 35s-35-15.67-35-35 15.67-35 35-35 35 15.67 35 35" transform="translate(17 -187) translate(-17 187)"/>
                    <path fill="#FFB54A" d="M222 35c0 19.33-15.67 35-35 35s-35-15.67-35-35 15.67-35 35-35 35 15.67 35 35" transform="translate(17 -187) translate(-17 187)"/>
                    <path fill="#FCF0E3" d="M187 8.815c-14.439 0-26.185 11.747-26.185 26.185 0 14.438 11.746 26.185 26.185 26.185 14.439 0 26.185-11.747 26.185-26.185 0-14.438-11.746-26.185-26.185-26.185M187 63c-15.44 0-28-12.56-28-28 0-15.439 12.56-28 28-28s28 12.561 28 28c0 15.44-12.56 28-28 28" transform="translate(17 -187) translate(-17 187)"/>
                    <path fill="#1B1B25" d="M188.352 42.84c1.885-.299 2.829-1.17 2.829-2.616v-.081c0-.71-.2-1.289-.598-1.739-.399-.449-1.142-.879-2.231-1.287v5.724zm-3.747-18.358c-.956.137-1.654.43-2.093.88-.438.45-.657 1.001-.657 1.656v.081c0 .628.186 1.165.558 1.615.371.45 1.102.88 2.192 1.288v-5.52zm-.2 23.388c-1.726-.218-3.394-.66-5-1.329-1.61-.667-3.077-1.519-4.405-2.555l3.109-4.662c1.089.846 2.145 1.548 3.168 2.106 1.023.56 2.132.962 3.328 1.207v-6.501c-1.435-.41-2.69-.859-3.766-1.35-1.076-.49-1.967-1.076-2.671-1.758-.704-.681-1.235-1.479-1.594-2.392-.358-.913-.538-1.969-.538-3.169v-.082c0-1.144.2-2.18.598-3.107.398-.926.963-1.731 1.694-2.412.73-.681 1.614-1.234 2.65-1.656 1.036-.423 2.179-.702 3.428-.838V17h4.145v2.453c1.434.219 2.756.58 3.965 1.084 1.209.504 2.358 1.152 3.448 1.942l-2.67 4.784c-.797-.545-1.609-1.029-2.432-1.452-.824-.422-1.66-.742-2.51-.96v6.174c3.028.845 5.226 1.948 6.595 3.312 1.37 1.363 2.053 3.188 2.053 5.478v.082c0 1.145-.206 2.181-.617 3.108-.413.927-.984 1.73-1.715 2.412-.73.682-1.614 1.24-2.65 1.676-1.036.437-2.192.723-3.467.859V52h-4.145v-4.13z" transform="translate(17 -187) translate(-17 187)"/>
                    <path fill="#FFCA4A" d="M225 39c0 19.33-15.67 35-35 35s-35-15.67-35-35 15.67-35 35-35 35 15.67 35 35" transform="translate(17 -187) translate(-17 187)"/>
                    <path fill="#FFF" d="M222 35c0 19.33-15.67 35-35 35s-35-15.67-35-35 15.67-35 35-35 35 15.67 35 35" transform="translate(17 -187) translate(-17 187)"/>
                    <path fill="#FCF0E3" d="M187 8.815c-14.439 0-26.185 11.747-26.185 26.185 0 14.438 11.746 26.185 26.185 26.185 14.439 0 26.185-11.747 26.185-26.185 0-14.438-11.746-26.185-26.185-26.185M187 63c-15.44 0-28-12.56-28-28 0-15.439 12.56-28 28-28s28 12.561 28 28c0 15.44-12.56 28-28 28M144 5.454c-3.61 0-6.546 2.936-6.546 6.546 0 3.61 2.936 6.546 6.546 6.546 3.61 0 6.546-2.937 6.546-6.546 0-3.61-2.937-6.546-6.546-6.546M144 19c-3.86 0-7-3.14-7-7s3.14-7 7-7 7 3.14 7 7-3.14 7-7 7" transform="translate(17 -187) translate(-17 187)"/>
                    <path fill="#FFF" d="M132 46c0-3.866-3.134-7-7-7 3.866 0 7-3.134 7-7 0 3.866 3.134 7 7 7-3.866 0-7 3.134-7 7M213 81c0-2.761-2.239-5-5-5 2.761 0 5-2.239 5-5 0 2.761 2.239 5 5 5-2.761 0-5 2.239-5 5M180 105c0-4.97-4.03-9-9-9 4.97 0 9-4.03 9-9 0 4.97 4.03 9 9 9-4.97 0-9 4.03-9 9" transform="translate(17 -187) translate(-17 187)"/>
                    <path fill="#FCF0E3" d="M211.5 33c0-4.694-3.805-8.5-8.5-8.5 4.695 0 8.5-3.805 8.5-8.5 0 4.695 3.805 8.5 8.5 8.5-4.695 0-8.5 3.806-8.5 8.5" transform="translate(17 -187) translate(-17 187)"/>
                    <path fill="#FFF" d="M241 39c0-2.762-2.238-5-5-5 2.762 0 5-2.238 5-5 0 2.762 2.238 5 5 5-2.762 0-5 2.238-5 5" transform="translate(17 -187) translate(-17 187)"/>
                    <path fill="#0152F6" d="M92.959 23H39.04C33.495 23 29 27.38 29 32.786c0 5.404 4.495 9.785 10.04 9.785h44.436L89.589 48v-5.429h3.37c5.545 0 10.041-4.38 10.041-9.785S98.504 23 92.959 23" transform="translate(17 -187) translate(-17 187)"/>
                    <path fill="#FFB54A" d="M45.065 31.792c.715-.6 1.17-1.505 1.17-2.519C46.235 27.465 44.787 26 43 26s-3.235 1.465-3.235 3.273c0 1.014.455 1.918 1.17 2.519C38.64 32.645 37 34.869 37 37.486c0 3.352 12 3.352 12 0 0-2.617-1.64-4.841-3.935-5.694" transform="translate(17 -187) translate(-17 187)"/>
                    <path fill="#FFF" d="M93.695 28h-38.39c-.168 0-.305-.224-.305-.5s.137-.5.305-.5h38.39c.168 0 .305.224.305.5s-.137.5-.305.5M87.695 38h-32.39c-.17 0-.305-.224-.305-.5s.136-.5.305-.5h32.39c.168 0 .305.224.305.5s-.137.5-.305.5M79.698 33H56.302c-.167 0-.302-.224-.302-.5s.135-.5.302-.5h23.396c.167 0 .302.224.302.5s-.135.5-.302.5M93.682 33H81.318c-.175 0-.318-.224-.318-.5s.143-.5.318-.5h12.364c.175 0 .318.224.318.5s-.143.5-.318.5M46.488 36c-.254 0-.508-.09-.702-.271L43.29 33.4c-.388-.361-.388-.948 0-1.31.388-.361 1.017-.361 1.404 0l1.793 1.673 4.817-4.493c.388-.361 1.017-.361 1.404 0 .388.362.388.949 0 1.31l-5.518 5.148c-.194.18-.448.271-.703.271" transform="translate(17 -187) translate(-17 187)"/>
                    <path fill="#FFB54A" d="M333.312 75h55.376C394.384 75 399 79.557 399 85.177c0 5.62-4.616 10.177-10.312 10.177h-45.636L336.773 101v-5.646h-3.46c-5.696 0-10.313-4.556-10.313-10.177C323 79.557 327.617 75 333.312 75" transform="translate(17 -187) translate(-17 187)"/>
                    <path fill="#4E69FF" d="M388.065 83.792c.715-.6 1.17-1.505 1.17-2.519 0-1.808-1.448-3.273-3.235-3.273s-3.235 1.465-3.235 3.273c0 1.014.455 1.918 1.17 2.519-2.295.853-3.935 3.077-3.935 5.694 0 3.352 12 3.352 12 0 0-2.617-1.64-4.841-3.935-5.694" transform="translate(17 -187) translate(-17 187)"/>
                    <path fill="#FFF" d="M392.682 84.942h-1.623v-1.623c0-.176-.143-.319-.32-.319h-1.48c-.175 0-.318.143-.318.319v1.623h-1.623c-.176 0-.318.142-.318.318v1.48c0 .177.142.319.318.319h1.623v1.623c0 .176.143.318.318.318h1.48c.177 0 .32-.142.32-.318v-1.623h1.623c.176 0 .318-.142.318-.318V85.26c0-.176-.142-.318-.318-.318M374.695 82h-38.39c-.168 0-.305-.224-.305-.5s.137-.5.305-.5h38.39c.168 0 .305.224.305.5s-.137.5-.305.5M368.695 90h-32.39c-.17 0-.305-.224-.305-.5s.136-.5.305-.5h32.39c.168 0 .305.224.305.5s-.137.5-.305.5M359.698 86h-23.396c-.167 0-.302-.224-.302-.5s.135-.5.302-.5h23.396c.167 0 .302.224.302.5s-.135.5-.302.5M374.682 86h-12.364c-.175 0-.318-.224-.318-.5s.143-.5.318-.5h12.364c.175 0 .318.224.318.5s-.143.5-.318.5" transform="translate(17 -187) translate(-17 187)"/>
                    <path fill="#FFEC5E" d="M264.056 15h37.888c3.898 0 7.056 3.358 7.056 7.5 0 4.142-3.158 7.5-7.056 7.5H264.056c-3.897 0-7.056-3.358-7.056-7.5 0-4.142 3.16-7.5 7.056-7.5" transform="translate(17 -187) translate(-17 187)"/>
                    <path fill="#FFF" d="M297.695 20h-29.39c-.169 0-.305-.224-.305-.5s.136-.5.305-.5h29.39c.168 0 .305.224.305.5s-.137.5-.305.5M292.7 26h-24.4c-.166 0-.3-.224-.3-.5s.134-.5.3-.5h24.4c.166 0 .3.224.3.5s-.134.5-.3.5M285.706 23h-17.412c-.162 0-.294-.224-.294-.5s.132-.5.294-.5h17.412c.162 0 .294.224.294.5s-.132.5-.294.5M297.684 23h-9.368c-.175 0-.316-.224-.316-.5s.141-.5.316-.5h9.368c.175 0 .316.224.316.5s-.141.5-.316.5" transform="translate(17 -187) translate(-17 187)"/>
                    <path fill="#FFB54A" d="M6.377 115h34.245c3.522 0 6.378 2.91 6.378 6.5s-2.856 6.5-6.378 6.5H6.377C2.855 128 0 125.09 0 121.5s2.855-6.5 6.377-6.5" transform="translate(17 -187) translate(-17 187)"/>
                    <path fill="#FFF" d="M36.692 121H10.308c-.17 0-.308-.224-.308-.5s.138-.5.308-.5h26.384c.17 0 .308.224.308.5s-.138.5-.308.5M31.704 125H10.296c-.163 0-.296-.224-.296-.5s.133-.5.296-.5h21.408c.163 0 .296.224.296.5s-.133.5-.296.5M25.689 123H9.31c-.172 0-.311-.224-.311-.5s.139-.5.311-.5H25.69c.172 0 .311.224.311.5s-.14.5-.311.5M36.683 123h-8.366c-.175 0-.317-.224-.317-.5s.142-.5.317-.5h8.366c.175 0 .317.224.317.5s-.142.5-.317.5M255.697 151h-59.394c-.168 0-.303-.224-.303-.5s.135-.5.303-.5h59.394c.167 0 .303.224.303.5s-.136.5-.303.5M255.696 164h-50.392c-.168 0-.304-.224-.304-.5s.136-.5.304-.5h50.392c.168 0 .304.224.304.5s-.136.5-.304.5M256.69 157h-37.38c-.171 0-.31-.224-.31-.5s.139-.5.31-.5h37.38c.171 0 .31.224.31.5s-.139.5-.31.5M214.696 157h-18.392c-.168 0-.304-.224-.304-.5s.136-.5.304-.5h18.392c.168 0 .304.224.304.5s-.136.5-.304.5M187.697 173h-59.394c-.168 0-.303-.224-.303-.5s.135-.5.303-.5h59.394c.167 0 .303.224.303.5s-.136.5-.303.5M179.69 187h-51.38c-.171 0-.31-.224-.31-.5s.139-.5.31-.5h51.38c.171 0 .31.224.31.5s-.139.5-.31.5M164.69 180h-37.38c-.171 0-.31-.224-.31-.5s.139-.5.31-.5h37.38c.171 0 .31.224.31.5s-.139.5-.31.5M187.696 180h-18.392c-.168 0-.304-.224-.304-.5s.136-.5.304-.5h18.392c.168 0 .304.224.304.5s-.136.5-.304.5" transform="translate(17 -187) translate(-17 187)"/>
                    <path fill="#FEC29E" d="M233.088 116.165l.02-.07 8.856-30.764-.039-.029c.399-.778 1.43-2.448 3.543-3.92 3.651-2.542 4.087-6.755 4.087-6.755 1.95-1.884 4.147-3.492 6.137-5.332.208-.192.425-.403.485-.679.068-.307-.076-.623-.252-.884-1.027-1.52-2.916-1.74-4.486-1.037-.92.41-1.742.996-2.513 1.64-.366.304-1.614 1.143-1.992 1.7l7.044-15.019c.625-1.334.216-2.856-.91-3.382-.563-.264-1.202-.23-1.78.036-.365.169-.699.44-.98.78.023-.11.035-.176.035-.176-8.25-6.928-18.43 16.652-18.43 16.652l-2.89 6.808-24.504 45.369c-3.465 6.582-.794 14.722 5.9 17.98.096.048.194.09.29.133 1.965 1.133 4.244 1.784 6.674 1.784h48.225L276 116.338l-42.912-.173z" transform="translate(17 -187) translate(-17 187)"/>
                    <path fill="#FF887C" d="M225 140.521c-1.833-.078-.723-.03 0 0M225.177 140.49l.646.02-.646-.02M233.72 116l-1.376 4.892c-.357 1.358-.77 2.817-1.21 4.304l-1.662 5.914c-.23.759-.52 1.478-.861 2.157C227.18 137.644 226 141 226 141l17-24.891c-4.229 0-5.199-.104-9.28-.109M224.493 140.5h.014-.014z" transform="translate(17 -187) translate(-17 187)"/>
                    <path fill="#FB8E77" d="M240.327 71c-.068 0-.135-.02-.194-.06-.146-.099-.176-.29-.069-.426 3.296-4.157 7.726-1.91 7.77-1.887.157.082.212.266.124.413-.087.147-.287.199-.445.118-.16-.084-3.975-1.999-6.922 1.718-.064.081-.163.124-.264.124M250.96 51.319c-1.23 1.71-2.375 3.51-3.39 5.381-.504.937-.962 1.903-1.344 2.895-.378.984-.683 2.043-.634 3.04l.001.02c.008.18-.116.335-.28.345-.162.01-.302-.129-.311-.309v-.008c-.033-1.215.33-2.3.734-3.32.417-1.019.901-1.993 1.431-2.933 1.065-1.877 2.246-3.656 3.52-5.36.063-.082.174-.094.25-.025.073.068.084.188.025.27l-.003.004zM248.902 50.365c-.82.57-1.555 1.325-2.212 2.108-.658.793-1.237 1.652-1.757 2.544-.51.898-.959 1.832-1.342 2.794-.203.476-.354.973-.534 1.458l-.444 1.49-.006.018c-.05.166-.222.26-.387.21-.163-.05-.256-.226-.207-.391l.002-.006.484-1.515c.192-.493.357-.998.573-1.481.411-.978.889-1.926 1.429-2.837.551-.905 1.16-1.774 1.852-2.575.7-.798 1.444-1.545 2.349-2.15.088-.059.208-.034.266.055.058.089.035.208-.051.268l-.015.01zM245.945 50.304c-1.19 1.216-2.298 2.53-3.256 3.927-.473.701-.928 1.418-1.284 2.174-.36.752-.656 1.534-.786 2.331v.008c-.027.165-.186.278-.357.252-.17-.026-.285-.181-.258-.347l.001-.008c.166-.882.505-1.698.899-2.475.393-.779.877-1.501 1.378-2.207 1.017-1.403 2.164-2.696 3.41-3.908.07-.068.185-.068.255.001.07.068.07.178.003.247l-.005.005z" transform="translate(17 -187) translate(-17 187)"/>
                    <path fill="#4E69FF" d="M345 160.871l-11.789-32.19c-1.403-7.064-8.111-12.419-16.181-12.419L284.1 116l-37.1.142v24.775h11.513l-7.207 78.62L333 220l.808-57.757L345 160.87z" transform="translate(17 -187) translate(-17 187)"/>
                    <path fill="#1B1B25" d="M283.936 116.277L284 116l-37 .142V141h11.483l.06-.656c0-13.119 11.317-23.78 25.393-24.067" transform="translate(17 -187) translate(-17 187)"/>
                    <path fill="#FF887C" d="M237 80s2.162 17.412 2.29 16.993L243 84.758 237 80z" transform="translate(17 -187) translate(-17 187)"/>
                    <path fill="#1B1B25" d="M285.949 170.377l-3.137-15.929-2.422-12.29c-.284-1.446-1.691-2.394-3.127-2.107l-12.12 2.422c-1.436.287-2.377 1.705-2.092 3.15l2.436 12.37 1.933 9.81 1.19 6.038c.284 1.446 1.691 2.394 3.127 2.108l7.159-1.431 4.962-.991c1.435-.287 2.376-1.705 2.091-3.15" transform="translate(17 -187) translate(-17 187)"/>
                    <path fill="#FEC29E" d="M350.658 184.546l-5.448-23.921-24.767 3.056 1.36 6.084-.126-.031-26.923-6.722-.024.034c-.743-.377-2.139-1.271-3.366-3.121-2.258-3.402-6.05-3.496-6.05-3.496-.73-.772-1.411-1.597-2.084-2.429l.63 3.206-.158.084c-1.711.915-3.642 1.32-5.573 1.168l-11.839-.931c-.74-.059-1.451.338-1.77 1.015-3.465 7.345 11.412 14.066 14.807 15.487l.12.049.138.058.13.052.108.044c.044.018.072.03.101.04l.04.016c.032.014.05.02.05.02l5.823 2.202 46.095 22.88c.428.207.861.388 1.298.544 2.235 1.033 4.807 1.369 7.39.77 7.197-1.666 11.69-8.9 10.038-16.158" transform="translate(17 -187) translate(-17 187)"/>
                    <path fill="#FF887C" d="M348 177l-28-13c.935 4.125.39 2.304 1.215 5.983l1.905.477c8.063.552 24.88 6.54 24.88 6.54" transform="translate(17 -187) translate(-17 187)"/>
                    <path fill="#1B1B25" d="M317.996 164c-.147 0-.278-.096-.308-.232l-3.681-16.416c-.036-.158.074-.313.245-.345.168-.036.339.068.374.226l3.622 16.152 12.395-1.452c.172-.023.332.092.354.252.023.16-.1.306-.274.326l-12.686 1.487-.04.002" transform="translate(17 -187) translate(-17 187)"/>
                    <path fill="#FF887C" d="M348.46 177.301l.08.398-.08-.398M348.498 178.49c.005.024.006.028 0 0M348.394 177l.212 1c-.058-.266-.123-.581-.212-1" transform="translate(17 -187) translate(-17 187)"/>
                    <path fill="#FF887C" d="M348.447 177.232l.106.536c-.031-.16-.067-.344-.106-.536" transform="translate(17 -187) translate(-17 187)"/>
                    <path fill="#1B1B25" d="M315.033 52.351c-.766-5.288-5.587-9.05-10.93-8.445-1.418.161-2.728.618-3.885 1.295-1.72-2.815-4.955-4.54-8.447-4.145-1.996.226-3.751 1.113-5.09 2.41-1.929-.967-4.145-1.41-6.447-1.15-6.327.716-10.875 6.428-10.16 12.76.335 2.96 1.764 5.529 3.836 7.354l-2.343 12.526c-.672 3.595 1.695 7.056 5.287 7.729l27.76 5.2c3.593.674 7.051-1.696 7.724-5.291l4.548-24.314c.42-2.244-.345-4.435-1.853-5.929" transform="translate(17 -187) translate(-17 187)"/>
                    <path fill="#FCF0E3" d="M274.951 58c-.097 0-.192-.051-.248-.143-4.681-7.768 1.767-12.75 1.832-12.8.132-.099.315-.066.41.072.094.138.064.33-.067.429-.25.189-6.06 4.699-1.678 11.97.086.143.046.333-.091.425-.049.032-.104.047-.158.047" transform="translate(17 -187) translate(-17 187)"/>
                    <path fill="#FEC29E" d="M310.592 75.603l-.605-.111-6.093-12.92c-1.499-.213-2.904-.759-4.122-1.572-1.17 1.248-2.777 2.109-4.625 2.314-2.222.249-4.32-.501-5.852-1.88-1.698 1.472-3.85 2.47-6.268 2.74-2.764.308-5.41-.382-7.568-1.778l-4.244 22.366c-.587 3.09.056 6.12 1.573 8.62 1.507 3.681 4.752 6.571 8.926 7.52v14.77c0 5.13 4.256 9.328 9.457 9.328h2.984c5.2 0 9.457-4.198 9.457-9.328V98.9c1.533-1.663 2.643-3.743 3.094-6.115l.775-4.084.603.111c3.583.662 7.064-1.688 7.734-5.222l.069-.359c.67-3.534-1.712-6.967-5.295-7.629" transform="translate(17 -187) translate(-17 187)"/>
                    <path fill="#FF887C" d="M305.624 89l-.542 2.879c-1.25 6.642-7.677 11.018-14.354 9.775l-9.442-1.759c-3.608-.67-6.54-2.853-8.286-5.758 1.54 3.787 4.917 6.743 9.253 7.55l.377.07c1.5 3.092 4.678 5.243 8.344 5.243h2.961c4.374 0 8.057-3.057 9.017-7.126 1.64-1.686 2.822-3.848 3.288-6.327l.76-4.035-1.376-.512z" transform="translate(17 -187) translate(-17 187)"/>
                    <path fill="#FB8E77" d="M311.03 85c-.075 0-.15-.02-.213-.061l-2.683-1.767c-.08-.052-.129-.131-.134-.217-.004-.085.035-.168.109-.227l3.31-2.649c.137-.11.357-.105.487.013.13.117.124.302-.014.413l-3.017 2.415 2.366 1.557c.15.098.177.282.06.41-.067.074-.17.113-.272.113" transform="translate(17 -187) translate(-17 187)"/>
                    <path fill="#1B1B25" d="M295.246 73c-.506-.014-1.027-.292-1.547-.535-.518-.254-1.046-.498-1.512-.695-.468-.199-1.013-.409-1.56-.606-.54-.206-1.113-.39-1.443-.731-.322-.324-.259-.834.494-1.175.718-.34 2.179-.42 3.727.232 1.543.657 2.395 1.716 2.553 2.426.176.735-.227 1.101-.712 1.083M276.34 72.02c.407.243.971.277 1.515.339.549.05 1.1.115 1.576.187.479.072 1.025.174 1.566.287.54.102 1.093.238 1.54.124.431-.104.658-.554.246-1.212-.385-.639-1.499-1.438-3.08-1.68-1.58-.235-2.83.207-3.34.71-.54.514-.418 1.017-.024 1.246M291.711 78.975l.048.01c.47.092.929-.236 1.017-.73l.209-1.166c.089-.493-.225-.972-.697-1.064l-.047-.01c-.471-.092-.929.236-1.017.73l-.21 1.166c-.087.493.226.972.697 1.064M277.711 76.975l.047.01c.472.092.93-.236 1.018-.73l.209-1.166c.089-.493-.225-.972-.697-1.064l-.047-.01c-.471-.092-.929.236-1.017.73l-.209 1.166c-.089.493.225.972.696 1.064" transform="translate(17 -187) translate(-17 187)"/>
                    <path fill="#FF887C" d="M290.908 82.722l2.95.273c.558.051 1.066-.282 1.129-.742l.006-.046c.064-.46-.342-.877-.9-.929l-2.95-.273c-.559-.051-1.067.282-1.13.741l-.007.047c-.062.46.344.877.902.929M273.907 79.722l2.951.273c.558.051 1.066-.282 1.13-.742l.005-.046c.064-.46-.342-.878-.9-.93l-2.95-.272c-.56-.052-1.067.282-1.13.741l-.007.047c-.062.46.343.877.901.929" transform="translate(17 -187) translate(-17 187)"/>
                    <path fill="#FB8E77" d="M281.344 93c-.105 0-.21-.04-.277-.116-.113-.127-.08-.305.074-.398 1.443-.87 3.06-.382 3.713-.003.155.09.193.267.084.395s-.324.159-.48.07c-.06-.034-1.512-.846-2.91-.003-.062.037-.133.055-.204.055" transform="translate(17 -187) translate(-17 187)"/>
                    <path fill="#FFF" d="M284 83.99l7-.99-.766 2.41c-.491 1.541-1.934 2.59-3.567 2.59-1.27 0-2.335-.948-2.47-2.2L284 83.99z" transform="translate(17 -187) translate(-17 187)"/>
                    <path fill="#FB8E77" d="M285.69 82c-.025 0-.052-.003-.078-.01l-2.246-.61c-.953-.259-1.72-.949-2.109-1.892-.387-.945-.335-2.001.142-2.899l3.421-6.423c.084-.157.273-.212.421-.125.15.086.204.283.121.439l-3.42 6.423c-.385.721-.426 1.57-.115 2.33.312.76.93 1.313 1.695 1.521l2.246.61c.166.045.266.222.222.394-.036.146-.161.242-.3.242" transform="translate(17 -187) translate(-17 187)"/>
                    <path fill="#FEC29E" d="M180.487 126.103l-24.415-45.369-2.879-6.808s-10.143-23.58-18.364-16.652l.035.175c-.279-.339-.612-.61-.976-.778-.575-.267-1.212-.3-1.774-.036-1.121.526-1.529 2.048-.905 3.381l7.018 15.02c-.377-.559-1.62-1.397-1.985-1.702-.768-.643-1.587-1.228-2.504-1.64-1.565-.701-3.446-.481-4.47 1.039-.176.26-.319.576-.25.883.06.276.275.487.482.68 1.983 1.84 4.173 3.447 6.115 5.332 0 0 .434 4.212 4.072 6.755 2.104 1.47 3.133 3.14 3.53 3.92l-.038.028 8.843 30.834-12.915.173V146h28.562c2.426 0 4.698-.652 6.657-1.788.094-.043.189-.082.282-.128 6.67-3.259 9.331-11.399 5.879-17.981" transform="translate(17 -187) translate(-17 187)"/>
                    <path fill="#FF887C" d="M160.775 146c2.756-.087 0 0 0 0s-6.458-17.964-7.567-25c-4.279 0-4.93.197-9.208.197L160.775 146z" transform="translate(17 -187) translate(-17 187)"/>
                    <path fill="#FB8E77" d="M145.673 76c-.1 0-.2-.043-.264-.124-2.947-3.718-6.761-1.802-6.922-1.718-.158.081-.357.03-.445-.118-.089-.146-.032-.332.125-.414.044-.023 4.474-2.268 7.769 1.888.107.136.077.327-.07.426-.058.04-.126.06-.193.06M135.301 56.057c.718.792 1.37 1.633 1.993 2.509.618.878 1.197 1.792 1.714 2.75.51.964.965 1.968 1.326 3.022.342 1.06.585 2.168.665 3.31.013.18-.109.337-.272.35-.162.015-.305-.12-.317-.299v-.005l-.001-.013c-.058-1.065-.266-2.12-.576-3.145-.329-1.02-.752-2.005-1.233-2.958-.489-.947-1.041-1.858-1.634-2.736-.594-.873-1.23-1.725-1.912-2.508l-.004-.004c-.068-.078-.066-.202.004-.275.07-.074.179-.073.247.002M137.281 55.021c1.016.519 1.762 1.291 2.46 2.103.684.82 1.28 1.708 1.791 2.635.53.921.966 1.886 1.382 2.858l.566 1.479.504 1.5c.054.16-.034.335-.198.388-.163.054-.34-.034-.394-.195v-.004l-.005-.014-.468-1.485-.53-1.464c-.39-.96-.8-1.916-1.3-2.824-.483-.917-1.048-1.79-1.695-2.595-.643-.792-1.398-1.569-2.264-2.03l-.029-.016c-.093-.05-.128-.165-.078-.257s.165-.126.258-.079M141.295 56.04c.698.549 1.315 1.158 1.899 1.806.581.646 1.118 1.334 1.597 2.059.482.722.917 1.477 1.279 2.267.381.782.661 1.607.917 2.437.05.161-.044.33-.209.378-.164.048-.337-.043-.386-.203l-.002-.006-.005-.015c-.226-.804-.474-1.606-.825-2.37-.33-.774-.733-1.517-1.185-2.23-.448-.718-.954-1.401-1.507-2.046-.55-.645-1.15-1.263-1.796-1.8l-.008-.005c-.076-.063-.086-.175-.021-.25.063-.073.175-.083.252-.023" transform="translate(17 -187) translate(-17 187)"/>
                    <path fill="#FF887C" d="M143 88.204L153 87l-6.184 12s-1.84-8.923-3.816-10.796" transform="translate(17 -187) translate(-17 187)"/>
                    <path fill="#FFF" d="M105.3 121.121v.011c-.145-.003-.29-.01-.436-.01H74.975c-6.489 0-12.024 4.089-14.193 9.84l-.049.123-.022.06L48 165.926l11.801 1.449L54 220h64.224l10.603-74.115H140V121l-34.7.121z" transform="translate(17 -187) translate(-17 187)"/>
                    <path fill="#1B1B25" d="M140 121l-34 .144v.004c12.747.537 22.92 11.16 22.92 24.192l-.053.66H140v-25zM127.857 147.473l-12.12-2.422c-1.435-.287-2.843.662-3.128 2.107l-2.42 12.29-3.138 15.928c-.285 1.446.656 2.864 2.092 3.151l4.961.991 7.159 1.43c1.435.288 2.843-.661 3.127-2.106l1.19-6.039 1.932-9.81 2.437-12.37c.285-1.445-.657-2.863-2.092-3.15" transform="translate(17 -187) translate(-17 187)"/>
                    <g transform="translate(17 -187) translate(-17 187) translate(43 160)">
                        <mask id="nqsso0jq4b" fill="#fff">
                            <use xlink:href="#qqzmy1icqa"/>
                        </mask>
                        <path fill="#FEC29E" d="M85.804 2.678c-.051-.077-.093-.153-.149-.23l-.288.037c-.21-.063-.432-.092-.658-.074l-11.838.934c-1.93.152-3.862-.254-5.573-1.17l-.286-.154L67.604-1c-.64.792-1.287 1.574-1.976 2.314-.349.02-2.342.197-4.206 1.603-.692.494-1.372 1.147-1.952 2.023-.728 1.1-1.513 1.859-2.188 2.377-.395.288-.747.493-1.012.628l-.024-.034-26.925 6.74-.124.031 1.367-6.13L5.79 5.517.342 29.502c-1.652 7.277 2.841 14.53 10.039 16.202 2.581.6 5.154.262 7.389-.773.437-.157.87-.338 1.298-.545l45.575-22.682 6.177-2.342s.25-.097.687-.28l-.09-.018c2.818-1.161 18.624-8.069 15.064-15.635-.15-.32-.39-.574-.677-.75z" mask="url(#nqsso0jq4b)"/>
                    </g>
                    <path fill="#FF887C" d="M44.54 183.3l-.08.4.08-.4M71.777 174.998c.55-2.552.39-2.332 1.223-5.998l-28 13s2.775-.845 6.603-1.871c.356-.131.718-.253 1.092-.355l19.082-4.776zM44.556 183.214l-.112.572.112-.572M44.505 183.477c-.013.06-.013.062 0 0M44.599 182.002l-.197.996.197-.996" transform="translate(17 -187) translate(-17 187)"/>
                    <path fill="#1B1B25" d="M75.77 169c-.013 0-.025 0-.038-.002l-5.46-.665c-.17-.02-.29-.173-.27-.34.021-.167.178-.287.345-.265l5.164.628 2.875-18.099c.026-.166.184-.278.353-.254.168.026.284.182.257.348l-2.92 18.391c-.025.15-.156.258-.306.258" transform="translate(17 -187) translate(-17 187)"/>
                    <path fill="#FF887C" d="M82 172l11.71-.283c2.185.277 5.662-1.626 5.258-3.717L82 172z" transform="translate(17 -187) translate(-17 187)"/>
                    <path fill="#1B1B25" d="M119.972 112.646l-4.14-28.264c-.453-3.096-1.35-6.016-2.608-8.711l2.248-.363s-1.578-22.94-27.226-17.463c-2.527-.262-5.126-.218-7.754.169-12.46 1.837-21.077 13.458-19.247 25.958l2.413 16.475c1.831 12.5 13.416 21.143 25.877 19.307l28.254-4.164c1.413-.209 2.39-1.527 2.183-2.944" transform="translate(17 -187) translate(-17 187)"/>
                    <path fill="#FCF0E3" d="M103.327 75c-.161 0-.301-.115-.324-.274-.024-.173.1-.333.28-.357l8.837-1.169c.071-.01.136-.047.178-.103.023-.032.06-.096.044-.181-1.429-7.719-8.767-11.28-8.84-11.315-.163-.077-.23-.267-.151-.423.08-.157.276-.223.437-.146.076.036 7.709 3.73 9.198 11.772.043.234-.013.47-.16.665-.146.195-.37.326-.617.359l-8.838 1.17-.044.002" transform="translate(17 -187) translate(-17 187)"/>
                    <path fill="#FEC29E" d="M110.94 76.494l-22.913 3.642L82.466 72c1.093 9.077-5.674 14.94-5.674 14.94s-.07-.093-.19-.265l-.19.035c-3.586.664-5.97 4.11-5.299 7.656.67 3.547 4.154 5.906 7.74 5.242l.437-.081c.784 3.401 2.55 6.347 4.959 8.585v14.526c0 5.149 4.26 9.362 9.465 9.362s9.464-4.213 9.464-9.362v-11.471c3.77-1.717 6.722-4.715 8.407-8.34l.01-.015c2.049-3.394 2.905-7.51 2.112-11.7l-2.766-14.618z" transform="translate(17 -187) translate(-17 187)"/>
                    <path fill="#FF887C" d="M100.64 110.186c-8.414 1.541-16.536-3.33-19.11-11.093-.085-.255-1.567.078-1.53.234.796 3.307 2.562 6.164 4.944 8.337.44 4.657 4.468 8.336 9.335 8.336 3.6 0 6.737-2.016 8.308-4.948 4.254-1.58 7.588-4.735 9.413-8.628-2.39 3.919-6.418 6.855-11.36 7.762" transform="translate(17 -187) translate(-17 187)"/>
                    <path fill="#FB8E77" d="M75.976 95c-.105 0-.21-.04-.28-.116-.119-.13-.09-.32.063-.42l2.347-1.546-2.995-2.4c-.142-.114-.148-.304-.015-.424.135-.12.358-.125.499-.013l3.295 2.64c.074.061.115.146.11.233-.005.088-.055.17-.137.222l-2.671 1.761c-.064.043-.14.063-.216.063" transform="translate(17 -187) translate(-17 187)"/>
                    <path fill="#1B1B25" d="M92.431 85c.29-.007.587-.146.884-.268.296-.127.597-.248.864-.347.267-.1.579-.204.892-.303.308-.103.635-.195.824-.365.184-.163.148-.418-.283-.588-.41-.17-1.244-.21-2.129.116-.881.328-1.369.858-1.458 1.213-.102.368.129.55.406.542M108.71 81.971c-.262.076-.576-.015-.883-.083-.308-.075-.618-.143-.89-.19-.273-.05-.588-.092-.902-.126-.31-.041-.635-.064-.86-.226-.218-.152-.27-.487.063-.83.313-.335 1.051-.63 1.954-.473.9.163 1.51.695 1.707 1.12.211.439.063.739-.19.808" transform="translate(17 -187) translate(-17 187)"/>
                    <path fill="#FB8E77" d="M99.51 97c-2.648 0-4.413-2.367-4.436-2.398-.113-.156-.095-.387.042-.517s.34-.11.454.047c.103.14 2.551 3.398 5.972 1.599.162-.085.353-.005.428.18.075.184.004.402-.158.488-.82.431-1.592.601-2.302.601M101.305 93c-.143 0-.27-.109-.3-.266-.032-.178.076-.351.242-.387l2.149-.456c1.336-.283 2.209-1.685 1.946-3.125-.095-.52-.565-.859-1.047-.758-1.13.239-2.229-.555-2.452-1.773l-.518-2.842c-.033-.179.075-.352.24-.387.166-.035.327.081.36.26l.518 2.842c.158.86.936 1.423 1.733 1.254.396-.083.796.003 1.128.244.334.241.56.608.638 1.033.328 1.796-.761 3.545-2.428 3.9l-2.15.455c-.02.004-.04.006-.059.006" transform="translate(17 -187) translate(-17 187)"/>
                    <path fill="#1B1B25" d="M95.266 88.99c-.487.063-.96-.163-1.05-.501l-.2-.747c-.092-.339.232-.668.718-.731.487-.064.958.162 1.05.5l.2.747c.092.339-.232.668-.718.731M108.266 86.99c-.487.063-.958-.162-1.05-.5l-.2-.748c-.092-.339.232-.668.718-.731.487-.064.958.162 1.05.5l.2.747c.092.339-.232.668-.718.731" transform="translate(17 -187) translate(-17 187)"/>
                    <path fill="#FF887C" d="M95.066 92.726l-2.897.269c-.574.053-1.097-.29-1.162-.764-.065-.473.353-.905.927-.958l2.897-.267c.574-.054 1.097.29 1.162.763.065.473-.353.904-.927.957M112.066 89.726l-2.897.269c-.574.053-1.097-.29-1.162-.764-.065-.473.353-.905.927-.958l2.897-.267c.574-.054 1.097.29 1.162.763.065.473-.353.904-.927.957" transform="translate(17 -187) translate(-17 187)"/>
                    <path fill="#FB8E77" d="M104.647 104c-.071 0-.145-.018-.207-.055-1.387-.828-2.825-.03-2.886.003-.16.09-.378.058-.49-.071-.112-.13-.074-.308.086-.4.651-.374 2.265-.856 3.705.003.158.094.192.274.077.402-.07.077-.176.118-.285.118" transform="translate(17 -187) translate(-17 187)"/>
                </g>
                <g fill-rule="nonzero">
                    <g transform="translate(17 -187) translate(-17 187) translate(160.5 8)">
                        <circle cx="26.5" cy="26.5" r="26.5" fill="#F7DA31"/>
                        <path fill="#000" d="M36.58 40.8c-2.842 1.93-6.087 2.904-9.734 2.904-4.887 0-9.036-1.723-12.477-5.159-3.431-3.435-5.152-7.6-5.152-12.493 0-4.863 1.721-9.008 5.152-12.444 3.432-3.436 7.59-5.159 12.477-5.159 4.857 0 8.996 1.723 12.427 5.16 3.431 3.435 5.152 7.59 5.152 12.443 0 3.653-.964 6.901-2.9 9.747l4.306 4.312-4.985 4.952L36.58 40.8zm-.207-10.15c.668-1.398 1.003-2.924 1.003-4.598 0-2.904-1.033-5.385-3.097-7.453-2.065-2.067-4.543-3.1-7.443-3.1-2.92 0-5.417 1.033-7.482 3.1-2.065 2.068-3.097 4.549-3.097 7.453 0 2.924 1.032 5.425 3.097 7.492 2.065 2.068 4.562 3.101 7.482 3.101 1.662 0 3.195-.334 4.591-1.004l-6.076-6.074 4.985-4.952 6.037 6.035z"/>
                    </g>
                </g>
            </g>
        </g>
    </g>
</svg>
