<svg xmlns="http://www.w3.org/2000/svg" width="184" height="70" viewBox="0 0 184 70">
    <g fill="none">
        <ellipse cx="35.12" cy="35" fill="#000" rx="35.12" ry="35"/>
        <path fill="#F8DC01" d="M48.746 53.766c-3.808 2.532-8.115 3.798-13.007 3.798-6.503 0-12.07-2.244-16.639-6.762-4.57-4.488-6.884-9.955-6.884-16.342 0-6.359 2.285-11.797 6.884-16.285 4.57-4.489 10.136-6.762 16.64-6.762 6.473 0 12.01 2.244 16.58 6.762 4.57 4.517 6.884 9.926 6.884 16.285 0 4.776-1.289 9.034-3.867 12.775l5.742 5.639-6.65 6.474-5.683-5.582zm-.264-13.293c.908-1.841 1.348-3.827 1.348-6.013 0-3.798-1.377-7.05-4.13-9.754-2.754-2.705-6.065-4.057-9.932-4.057-3.896 0-7.235 1.352-9.989 4.057-2.754 2.704-4.13 5.956-4.13 9.754 0 3.826 1.376 7.106 4.13 9.811s6.093 4.057 9.99 4.057c2.226 0 4.247-.432 6.122-1.324l-8.144-7.94 6.65-6.503 8.085 7.912z"/>
        <path fill="#000" d="M81.869 18.496c0-5.118 1.808-9.48 5.424-13.087C90.91 1.803 95.283 0 100.417 0h2.654v9.248h-2.654c-2.538 0-4.725.902-6.533 2.734-1.808 1.803-2.741 3.984-2.741 6.514h6.62v9.248h-6.62v24.458c0 4.944-1.75 9.132-5.25 12.592C82.393 68.255 78.194 70 73.295 70v-9.248c2.362 0 4.374-.843 6.066-2.501 1.691-1.658 2.508-3.693 2.508-6.05V18.497z"/>
        <path fill="#050614" d="M106.124 19.022H115.286V54.022H106.124zM153.083 23.143c-1.35-1.502-2.993-2.716-4.87-3.582-1.908-.867-4.02-1.3-6.338-1.3-1.995 0-3.814.347-5.428 1.01-1.232.52-2.376 1.156-3.432 1.907v-1.993h-9.33v34.837h9.33V34.784c0-2.08.704-3.784 2.17-5.229 1.468-1.444 3.199-2.137 5.311-2.137 2.054 0 3.785.693 5.252 2.137 1.496 1.387 2.23 3.091 2.23 5.229v19.238h9.3V34.784c0-2.253-.381-4.42-1.086-6.384-.733-1.993-1.79-3.755-3.11-5.257zM183.474 18.29c-2.105 0-4.034.345-5.7 1.066-1.286.547-2.514 1.21-3.595 1.96v-2.104h-9.266v34.81h9.266V36.588c0-2.45.906-4.64 2.718-6.484 1.812-1.786 4.005-2.68 6.577-2.68H184v-9.163h-.526v.029z"/>
    </g>
</svg>
